solid
 facet normal  0.0000000000e+00 -1.0000000000e+00 -0.0000000000e+00
   outer loop
     vertex 9.9619469809e-01 0.0000000000e+00 -8.7155742748e-02
     vertex 8.5872117708e-01 0.0000000000e+00 -7.5128368124e-02
     vertex 8.5806589271e-01 0.0000000000e+00 -8.2618302692e-02
   endloop
 endfacet
 facet normal  0.0000000000e+00 -1.0000000000e+00 0.0000000000e+00
   outer loop
     vertex 8.5872117708e-01 0.0000000000e+00 -7.5128368124e-02
     vertex 4.9088739435e-01 0.0000000000e+00 -6.5176308326e-02
     vertex 8.5806589271e-01 0.0000000000e+00 -8.2618302692e-02
   endloop
 endfacet
 facet normal  0.0000000000e+00 -1.0000000000e+00 -0.0000000000e+00
   outer loop
     vertex 8.5872117708e-01 0.0000000000e+00 -7.5128368124e-02
     vertex 4.9281742666e-01 0.0000000000e+00 -4.3115938021e-02
     vertex 4.9088739435e-01 0.0000000000e+00 -6.5176308326e-02
   endloop
 endfacet
 facet normal  0.0000000000e+00 -1.0000000000e+00 0.0000000000e+00
   outer loop
     vertex 4.9281742666e-01 0.0000000000e+00 -4.3115938021e-02
     vertex 1.2607624574e-01 0.0000000000e+00 -1.1030242242e-02
     vertex 4.9088739435e-01 0.0000000000e+00 -6.5176308326e-02
   endloop
 endfacet
 facet normal  0.0000000000e+00 -1.0000000000e+00 -0.0000000000e+00
   outer loop
     vertex 4.9088739435e-01 0.0000000000e+00 -6.5176308326e-02
     vertex 1.2607624574e-01 0.0000000000e+00 -1.1030242242e-02
     vertex 1.2423335775e-01 0.0000000000e+00 -3.2094548313e-02
   endloop
 endfacet
 facet normal  0.0000000000e+00 -1.0000000000e+00 0.0000000000e+00
   outer loop
     vertex 1.2607624574e-01 0.0000000000e+00 -1.1030242242e-02
     vertex 0.0000000000e+00 0.0000000000e+00 0.0000000000e+00
     vertex 1.2423335775e-01 0.0000000000e+00 -3.2094548313e-02
   endloop
 endfacet
 facet normal  0.0000000000e+00 -1.0000000000e+00 0.0000000000e+00
   outer loop
     vertex 0.0000000000e+00 0.0000000000e+00 0.0000000000e+00
     vertex 1.2607624574e-01 0.0000000000e+00 -1.1030242242e-02
     vertex 1.2791913372e-01 0.0000000000e+00 1.0034063829e-02
   endloop
 endfacet
 facet normal  0.0000000000e+00 -1.0000000000e+00 0.0000000000e+00
   outer loop
     vertex 1.2607624574e-01 0.0000000000e+00 -1.1030242242e-02
     vertex 4.9474745898e-01 0.0000000000e+00 -2.1055567716e-02
     vertex 1.2791913372e-01 0.0000000000e+00 1.0034063829e-02
   endloop
 endfacet
 facet normal  0.0000000000e+00 -1.0000000000e+00 0.0000000000e+00
   outer loop
     vertex 1.2607624574e-01 0.0000000000e+00 -1.1030242242e-02
     vertex 4.9281742666e-01 0.0000000000e+00 -4.3115938021e-02
     vertex 4.9474745898e-01 0.0000000000e+00 -2.1055567716e-02
   endloop
 endfacet
 facet normal  0.0000000000e+00 -1.0000000000e+00 0.0000000000e+00
   outer loop
     vertex 4.9281742666e-01 0.0000000000e+00 -4.3115938021e-02
     vertex 8.5872117708e-01 0.0000000000e+00 -7.5128368124e-02
     vertex 4.9474745898e-01 0.0000000000e+00 -2.1055567716e-02
   endloop
 endfacet
 facet normal  0.0000000000e+00 -1.0000000000e+00 0.0000000000e+00
   outer loop
     vertex 4.9474745898e-01 0.0000000000e+00 -2.1055567716e-02
     vertex 8.5872117708e-01 0.0000000000e+00 -7.5128368124e-02
     vertex 8.5937646145e-01 0.0000000000e+00 -6.7638433556e-02
   endloop
 endfacet
 facet normal  0.0000000000e+00 -1.0000000000e+00 0.0000000000e+00
   outer loop
     vertex 8.5872117708e-01 0.0000000000e+00 -7.5128368124e-02
     vertex 9.9619469809e-01 0.0000000000e+00 -8.7155742748e-02
     vertex 8.5937646145e-01 0.0000000000e+00 -6.7638433556e-02
   endloop
 endfacet
 facet normal  0.0000000000e+00 -1.0000000000e+00 -0.0000000000e+00
   outer loop
     vertex 9.9619469809e-01 0.0000000000e+00 -8.7155742748e-02
     vertex 8.5806589271e-01 0.0000000000e+00 -8.2618302692e-02
     vertex 8.5741060835e-01 0.0000000000e+00 -9.0108237260e-02
   endloop
 endfacet
 facet normal  0.0000000000e+00 -1.0000000000e+00 0.0000000000e+00
   outer loop
     vertex 8.5806589271e-01 0.0000000000e+00 -8.2618302692e-02
     vertex 4.8895736203e-01 0.0000000000e+00 -8.7236678631e-02
     vertex 8.5741060835e-01 0.0000000000e+00 -9.0108237260e-02
   endloop
 endfacet
 facet normal  0.0000000000e+00 -1.0000000000e+00 -0.0000000000e+00
   outer loop
     vertex 8.5806589271e-01 0.0000000000e+00 -8.2618302692e-02
     vertex 4.9088739435e-01 0.0000000000e+00 -6.5176308326e-02
     vertex 4.8895736203e-01 0.0000000000e+00 -8.7236678631e-02
   endloop
 endfacet
 facet normal  0.0000000000e+00 -1.0000000000e+00 0.0000000000e+00
   outer loop
     vertex 4.9088739435e-01 0.0000000000e+00 -6.5176308326e-02
     vertex 1.2423335775e-01 0.0000000000e+00 -3.2094548313e-02
     vertex 4.8895736203e-01 0.0000000000e+00 -8.7236678631e-02
   endloop
 endfacet
 facet normal  0.0000000000e+00 -1.0000000000e+00 -0.0000000000e+00
   outer loop
     vertex 4.8895736203e-01 0.0000000000e+00 -8.7236678631e-02
     vertex 1.2423335775e-01 0.0000000000e+00 -3.2094548313e-02
     vertex 1.2239046976e-01 0.0000000000e+00 -5.3158854384e-02
   endloop
 endfacet
 facet normal  0.0000000000e+00 -1.0000000000e+00 0.0000000000e+00
   outer loop
     vertex 1.2423335775e-01 0.0000000000e+00 -3.2094548313e-02
     vertex 0.0000000000e+00 0.0000000000e+00 0.0000000000e+00
     vertex 1.2239046976e-01 0.0000000000e+00 -5.3158854384e-02
   endloop
 endfacet
 facet normal  -0.0000000000e+00 -1.0000000000e+00 0.0000000000e+00
   outer loop
     vertex 0.0000000000e+00 0.0000000000e+00 0.0000000000e+00
     vertex 1.2791913372e-01 0.0000000000e+00 1.0034063829e-02
     vertex 1.2976202171e-01 0.0000000000e+00 3.1098369900e-02
   endloop
 endfacet
 facet normal  0.0000000000e+00 -1.0000000000e+00 0.0000000000e+00
   outer loop
     vertex 1.2791913372e-01 0.0000000000e+00 1.0034063829e-02
     vertex 4.9667749129e-01 0.0000000000e+00 1.0048025890e-03
     vertex 1.2976202171e-01 0.0000000000e+00 3.1098369900e-02
   endloop
 endfacet
 facet normal  0.0000000000e+00 -1.0000000000e+00 0.0000000000e+00
   outer loop
     vertex 1.2791913372e-01 0.0000000000e+00 1.0034063829e-02
     vertex 4.9474745898e-01 0.0000000000e+00 -2.1055567716e-02
     vertex 4.9667749129e-01 0.0000000000e+00 1.0048025890e-03
   endloop
 endfacet
 facet normal  0.0000000000e+00 -1.0000000000e+00 0.0000000000e+00
   outer loop
     vertex 4.9474745898e-01 0.0000000000e+00 -2.1055567716e-02
     vertex 8.5937646145e-01 0.0000000000e+00 -6.7638433556e-02
     vertex 4.9667749129e-01 0.0000000000e+00 1.0048025890e-03
   endloop
 endfacet
 facet normal  0.0000000000e+00 -1.0000000000e+00 0.0000000000e+00
   outer loop
     vertex 4.9667749129e-01 0.0000000000e+00 1.0048025890e-03
     vertex 8.5937646145e-01 0.0000000000e+00 -6.7638433556e-02
     vertex 8.6003174581e-01 0.0000000000e+00 -6.0148498988e-02
   endloop
 endfacet
 facet normal  0.0000000000e+00 -1.0000000000e+00 0.0000000000e+00
   outer loop
     vertex 8.5937646145e-01 0.0000000000e+00 -6.7638433556e-02
     vertex 9.9619469809e-01 0.0000000000e+00 -8.7155742748e-02
     vertex 8.6003174581e-01 0.0000000000e+00 -6.0148498988e-02
   endloop
 endfacet
 facet normal  2.1269200378e-02 0.0000000000e+00 -9.9977378497e-01
   outer loop
     vertex 9.9619469809e-01 0.0000000000e+00 -8.7155742748e-02
     vertex 8.5741060835e-01 2.0000000000e-01 -9.0108237260e-02
     vertex 9.9619469809e-01 2.0000000000e-01 -8.7155742748e-02
   endloop
 endfacet
 facet normal  2.1269200378e-02 0.0000000000e+00 -9.9977378497e-01
   outer loop
     vertex 9.9619469809e-01 0.0000000000e+00 -8.7155742748e-02
     vertex 8.5741060835e-01 0.0000000000e+00 -9.0108237260e-02
     vertex 8.5741060835e-01 2.0000000000e-01 -9.0108237260e-02
   endloop
 endfacet
 facet normal  -7.7933128662e-03 0.0000000000e+00 -9.9996963168e-01
   outer loop
     vertex 8.5741060835e-01 0.0000000000e+00 -9.0108237260e-02
     vertex 4.8895736203e-01 2.0000000000e-01 -8.7236678631e-02
     vertex 8.5741060835e-01 2.0000000000e-01 -9.0108237260e-02
   endloop
 endfacet
 facet normal  -7.7933128662e-03 0.0000000000e+00 -9.9996963168e-01
   outer loop
     vertex 8.5741060835e-01 0.0000000000e+00 -9.0108237260e-02
     vertex 4.8895736203e-01 0.0000000000e+00 -8.7236678631e-02
     vertex 4.8895736203e-01 2.0000000000e-01 -8.7236678631e-02
   endloop
 endfacet
 facet normal  -9.2565680570e-02 0.0000000000e+00 -9.9570658067e-01
   outer loop
     vertex 4.8895736203e-01 0.0000000000e+00 -8.7236678631e-02
     vertex 1.2239046976e-01 0.0000000000e+00 -5.3158854384e-02
     vertex 4.8895736203e-01 2.0000000000e-01 -8.7236678631e-02
   endloop
 endfacet
 facet normal  -9.2565680570e-02 0.0000000000e+00 -9.9570658067e-01
   outer loop
     vertex 4.8895736203e-01 2.0000000000e-01 -8.7236678631e-02
     vertex 1.2239046976e-01 0.0000000000e+00 -5.3158854384e-02
     vertex 1.2239046976e-01 2.0000000000e-01 -5.3158854384e-02
   endloop
 endfacet
 facet normal  -3.9838325561e-01 0.0000000000e+00 -9.1721904780e-01
   outer loop
     vertex 1.2239046976e-01 0.0000000000e+00 -5.3158854384e-02
     vertex 0.0000000000e+00 0.0000000000e+00 0.0000000000e+00
     vertex 1.2239046976e-01 2.0000000000e-01 -5.3158854384e-02
   endloop
 endfacet
 facet normal  -3.9838325561e-01 0.0000000000e+00 -9.1721904780e-01
   outer loop
     vertex 1.2239046976e-01 2.0000000000e-01 -5.3158854384e-02
     vertex 0.0000000000e+00 0.0000000000e+00 0.0000000000e+00
     vertex 0.0000000000e+00 2.0000000000e-01 0.0000000000e+00
   endloop
 endfacet
 facet normal  -2.3305750262e-01 0.0000000000e+00 9.7246295583e-01
   outer loop
     vertex 0.0000000000e+00 0.0000000000e+00 0.0000000000e+00
     vertex 1.2976202171e-01 2.0000000000e-01 3.1098369900e-02
     vertex 0.0000000000e+00 2.0000000000e-01 0.0000000000e+00
   endloop
 endfacet
 facet normal  -2.3305750262e-01 0.0000000000e+00 9.7246295583e-01
   outer loop
     vertex 0.0000000000e+00 0.0000000000e+00 0.0000000000e+00
     vertex 1.2976202171e-01 0.0000000000e+00 3.1098369900e-02
     vertex 1.2976202171e-01 2.0000000000e-01 3.1098369900e-02
   endloop
 endfacet
 facet normal  8.1743233336e-02 0.0000000000e+00 9.9665342211e-01
   outer loop
     vertex 1.2976202171e-01 0.0000000000e+00 3.1098369900e-02
     vertex 4.9667749129e-01 2.0000000000e-01 1.0048025890e-03
     vertex 1.2976202171e-01 2.0000000000e-01 3.1098369900e-02
   endloop
 endfacet
 facet normal  8.1743233336e-02 -0.0000000000e+00 9.9665342211e-01
   outer loop
     vertex 1.2976202171e-01 0.0000000000e+00 3.1098369900e-02
     vertex 4.9667749129e-01 0.0000000000e+00 1.0048025890e-03
     vertex 4.9667749129e-01 2.0000000000e-01 1.0048025890e-03
   endloop
 endfacet
 facet normal  1.6596798933e-01 0.0000000000e+00 9.8613114063e-01
   outer loop
     vertex 4.9667749129e-01 0.0000000000e+00 1.0048025890e-03
     vertex 8.6003174581e-01 0.0000000000e+00 -6.0148498988e-02
     vertex 4.9667749129e-01 2.0000000000e-01 1.0048025890e-03
   endloop
 endfacet
 facet normal  1.6596798933e-01 -0.0000000000e+00 9.8613114063e-01
   outer loop
     vertex 4.9667749129e-01 2.0000000000e-01 1.0048025890e-03
     vertex 8.6003174581e-01 0.0000000000e+00 -6.0148498988e-02
     vertex 8.6003174581e-01 2.0000000000e-01 -6.0148498988e-02
   endloop
 endfacet
 facet normal  1.9455496927e-01 0.0000000000e+00 9.8089161681e-01
   outer loop
     vertex 8.6003174581e-01 0.0000000000e+00 -6.0148498988e-02
     vertex 9.9619469809e-01 0.0000000000e+00 -8.7155742748e-02
     vertex 8.6003174581e-01 2.0000000000e-01 -6.0148498988e-02
   endloop
 endfacet
 facet normal  1.9455496927e-01 -0.0000000000e+00 9.8089161681e-01
   outer loop
     vertex 8.6003174581e-01 2.0000000000e-01 -6.0148498988e-02
     vertex 9.9619469809e-01 0.0000000000e+00 -8.7155742748e-02
     vertex 9.9619469809e-01 2.0000000000e-01 -8.7155742748e-02
   endloop
 endfacet
 facet normal  0.0000000000e+00 1.0000000000e+00 0.0000000000e+00
   outer loop
     vertex 9.9619469809e-01 2.0000000000e-01 -8.7155742748e-02
     vertex 8.5741060835e-01 2.0000000000e-01 -9.0108237260e-02
     vertex 8.5806589271e-01 2.0000000000e-01 -8.2618302692e-02
   endloop
 endfacet
 facet normal  0.0000000000e+00 1.0000000000e+00 0.0000000000e+00
   outer loop
     vertex 8.5741060835e-01 2.0000000000e-01 -9.0108237260e-02
     vertex 4.9088739435e-01 2.0000000000e-01 -6.5176308326e-02
     vertex 8.5806589271e-01 2.0000000000e-01 -8.2618302692e-02
   endloop
 endfacet
 facet normal  -0.0000000000e+00 1.0000000000e+00 0.0000000000e+00
   outer loop
     vertex 8.5741060835e-01 2.0000000000e-01 -9.0108237260e-02
     vertex 4.8895736203e-01 2.0000000000e-01 -8.7236678631e-02
     vertex 4.9088739435e-01 2.0000000000e-01 -6.5176308326e-02
   endloop
 endfacet
 facet normal  0.0000000000e+00 1.0000000000e+00 0.0000000000e+00
   outer loop
     vertex 4.8895736203e-01 2.0000000000e-01 -8.7236678631e-02
     vertex 1.2239046976e-01 2.0000000000e-01 -5.3158854384e-02
     vertex 4.9088739435e-01 2.0000000000e-01 -6.5176308326e-02
   endloop
 endfacet
 facet normal  -0.0000000000e+00 1.0000000000e+00 0.0000000000e+00
   outer loop
     vertex 4.9088739435e-01 2.0000000000e-01 -6.5176308326e-02
     vertex 1.2239046976e-01 2.0000000000e-01 -5.3158854384e-02
     vertex 1.2423335775e-01 2.0000000000e-01 -3.2094548313e-02
   endloop
 endfacet
 facet normal  0.0000000000e+00 1.0000000000e+00 0.0000000000e+00
   outer loop
     vertex 1.2239046976e-01 2.0000000000e-01 -5.3158854384e-02
     vertex 0.0000000000e+00 2.0000000000e-01 0.0000000000e+00
     vertex 1.2423335775e-01 2.0000000000e-01 -3.2094548313e-02
   endloop
 endfacet
 facet normal  0.0000000000e+00 1.0000000000e+00 0.0000000000e+00
   outer loop
     vertex 0.0000000000e+00 2.0000000000e-01 0.0000000000e+00
     vertex 1.2976202171e-01 2.0000000000e-01 3.1098369900e-02
     vertex 1.2791913372e-01 2.0000000000e-01 1.0034063829e-02
   endloop
 endfacet
 facet normal  0.0000000000e+00 1.0000000000e+00 0.0000000000e+00
   outer loop
     vertex 1.2976202171e-01 2.0000000000e-01 3.1098369900e-02
     vertex 4.9474745898e-01 2.0000000000e-01 -2.1055567716e-02
     vertex 1.2791913372e-01 2.0000000000e-01 1.0034063829e-02
   endloop
 endfacet
 facet normal  0.0000000000e+00 1.0000000000e+00 0.0000000000e+00
   outer loop
     vertex 1.2976202171e-01 2.0000000000e-01 3.1098369900e-02
     vertex 4.9667749129e-01 2.0000000000e-01 1.0048025890e-03
     vertex 4.9474745898e-01 2.0000000000e-01 -2.1055567716e-02
   endloop
 endfacet
 facet normal  0.0000000000e+00 1.0000000000e+00 0.0000000000e+00
   outer loop
     vertex 4.9667749129e-01 2.0000000000e-01 1.0048025890e-03
     vertex 8.6003174581e-01 2.0000000000e-01 -6.0148498988e-02
     vertex 4.9474745898e-01 2.0000000000e-01 -2.1055567716e-02
   endloop
 endfacet
 facet normal  0.0000000000e+00 1.0000000000e+00 0.0000000000e+00
   outer loop
     vertex 4.9474745898e-01 2.0000000000e-01 -2.1055567716e-02
     vertex 8.6003174581e-01 2.0000000000e-01 -6.0148498988e-02
     vertex 8.5937646145e-01 2.0000000000e-01 -6.7638433556e-02
   endloop
 endfacet
 facet normal  0.0000000000e+00 1.0000000000e+00 0.0000000000e+00
   outer loop
     vertex 8.6003174581e-01 2.0000000000e-01 -6.0148498988e-02
     vertex 9.9619469809e-01 2.0000000000e-01 -8.7155742748e-02
     vertex 8.5937646145e-01 2.0000000000e-01 -6.7638433556e-02
   endloop
 endfacet
 facet normal  -0.0000000000e+00 1.0000000000e+00 0.0000000000e+00
   outer loop
     vertex 9.9619469809e-01 2.0000000000e-01 -8.7155742748e-02
     vertex 8.5806589271e-01 2.0000000000e-01 -8.2618302692e-02
     vertex 8.5872117708e-01 2.0000000000e-01 -7.5128368124e-02
   endloop
 endfacet
 facet normal  0.0000000000e+00 1.0000000000e+00 0.0000000000e+00
   outer loop
     vertex 8.5806589271e-01 2.0000000000e-01 -8.2618302692e-02
     vertex 4.9281742666e-01 2.0000000000e-01 -4.3115938021e-02
     vertex 8.5872117708e-01 2.0000000000e-01 -7.5128368124e-02
   endloop
 endfacet
 facet normal  -0.0000000000e+00 1.0000000000e+00 0.0000000000e+00
   outer loop
     vertex 8.5806589271e-01 2.0000000000e-01 -8.2618302692e-02
     vertex 4.9088739435e-01 2.0000000000e-01 -6.5176308326e-02
     vertex 4.9281742666e-01 2.0000000000e-01 -4.3115938021e-02
   endloop
 endfacet
 facet normal  0.0000000000e+00 1.0000000000e+00 0.0000000000e+00
   outer loop
     vertex 4.9088739435e-01 2.0000000000e-01 -6.5176308326e-02
     vertex 1.2423335775e-01 2.0000000000e-01 -3.2094548313e-02
     vertex 4.9281742666e-01 2.0000000000e-01 -4.3115938021e-02
   endloop
 endfacet
 facet normal  -0.0000000000e+00 1.0000000000e+00 0.0000000000e+00
   outer loop
     vertex 4.9281742666e-01 2.0000000000e-01 -4.3115938021e-02
     vertex 1.2423335775e-01 2.0000000000e-01 -3.2094548313e-02
     vertex 1.2607624574e-01 2.0000000000e-01 -1.1030242242e-02
   endloop
 endfacet
 facet normal  0.0000000000e+00 1.0000000000e+00 0.0000000000e+00
   outer loop
     vertex 1.2423335775e-01 2.0000000000e-01 -3.2094548313e-02
     vertex 0.0000000000e+00 2.0000000000e-01 0.0000000000e+00
     vertex 1.2607624574e-01 2.0000000000e-01 -1.1030242242e-02
   endloop
 endfacet
 facet normal  0.0000000000e+00 1.0000000000e+00 0.0000000000e+00
   outer loop
     vertex 0.0000000000e+00 2.0000000000e-01 0.0000000000e+00
     vertex 1.2791913372e-01 2.0000000000e-01 1.0034063829e-02
     vertex 1.2607624574e-01 2.0000000000e-01 -1.1030242242e-02
   endloop
 endfacet
 facet normal  0.0000000000e+00 1.0000000000e+00 0.0000000000e+00
   outer loop
     vertex 1.2791913372e-01 2.0000000000e-01 1.0034063829e-02
     vertex 4.9281742666e-01 2.0000000000e-01 -4.3115938021e-02
     vertex 1.2607624574e-01 2.0000000000e-01 -1.1030242242e-02
   endloop
 endfacet
 facet normal  0.0000000000e+00 1.0000000000e+00 0.0000000000e+00
   outer loop
     vertex 1.2791913372e-01 2.0000000000e-01 1.0034063829e-02
     vertex 4.9474745898e-01 2.0000000000e-01 -2.1055567716e-02
     vertex 4.9281742666e-01 2.0000000000e-01 -4.3115938021e-02
   endloop
 endfacet
 facet normal  0.0000000000e+00 1.0000000000e+00 0.0000000000e+00
   outer loop
     vertex 4.9474745898e-01 2.0000000000e-01 -2.1055567716e-02
     vertex 8.5937646145e-01 2.0000000000e-01 -6.7638433556e-02
     vertex 4.9281742666e-01 2.0000000000e-01 -4.3115938021e-02
   endloop
 endfacet
 facet normal  0.0000000000e+00 1.0000000000e+00 0.0000000000e+00
   outer loop
     vertex 4.9281742666e-01 2.0000000000e-01 -4.3115938021e-02
     vertex 8.5937646145e-01 2.0000000000e-01 -6.7638433556e-02
     vertex 8.5872117708e-01 2.0000000000e-01 -7.5128368124e-02
   endloop
 endfacet
 facet normal  0.0000000000e+00 1.0000000000e+00 0.0000000000e+00
   outer loop
     vertex 8.5937646145e-01 2.0000000000e-01 -6.7638433556e-02
     vertex 9.9619469809e-01 2.0000000000e-01 -8.7155742748e-02
     vertex 8.5872117708e-01 2.0000000000e-01 -7.5128368124e-02
   endloop
 endfacet
endsolid
