solid
 facet normal  0.0000000000e+00 -1.0000000000e+00 -0.0000000000e+00
   outer loop
     vertex 9.9619469809e-01 0.0000000000e+00 -8.7155742748e-02
     vertex 9.7717543414e-01 0.0000000000e+00 -8.5491772763e-02
     vertex 9.7707910762e-01 0.0000000000e+00 -8.6592789935e-02
   endloop
 endfacet
 facet normal  0.0000000000e+00 -1.0000000000e+00 0.0000000000e+00
   outer loop
     vertex 9.7717543414e-01 0.0000000000e+00 -8.5491772763e-02
     vertex 9.4960466200e-01 0.0000000000e+00 -8.5745980813e-02
     vertex 9.7707910762e-01 0.0000000000e+00 -8.6592789935e-02
   endloop
 endfacet
 facet normal  0.0000000000e+00 -1.0000000000e+00 -0.0000000000e+00
   outer loop
     vertex 9.7717543414e-01 0.0000000000e+00 -8.5491772763e-02
     vertex 9.4983616437e-01 0.0000000000e+00 -8.3099896589e-02
     vertex 9.4960466200e-01 0.0000000000e+00 -8.5745980813e-02
   endloop
 endfacet
 facet normal  0.0000000000e+00 -1.0000000000e+00 0.0000000000e+00
   outer loop
     vertex 9.4983616437e-01 0.0000000000e+00 -8.3099896589e-02
     vertex 9.1093170739e-01 0.0000000000e+00 -8.4480797923e-02
     vertex 9.4960466200e-01 0.0000000000e+00 -8.5745980813e-02
   endloop
 endfacet
 facet normal  0.0000000000e+00 -1.0000000000e+00 -0.0000000000e+00
   outer loop
     vertex 9.4983616437e-01 0.0000000000e+00 -8.3099896589e-02
     vertex 9.1134712595e-01 0.0000000000e+00 -7.9732542058e-02
     vertex 9.1093170739e-01 0.0000000000e+00 -8.4480797923e-02
   endloop
 endfacet
 facet normal  0.0000000000e+00 -1.0000000000e+00 0.0000000000e+00
   outer loop
     vertex 9.1134712595e-01 0.0000000000e+00 -7.9732542058e-02
     vertex 8.5806589271e-01 0.0000000000e+00 -8.2618302692e-02
     vertex 9.1093170739e-01 0.0000000000e+00 -8.4480797923e-02
   endloop
 endfacet
 facet normal  0.0000000000e+00 -1.0000000000e+00 -0.0000000000e+00
   outer loop
     vertex 9.1134712595e-01 0.0000000000e+00 -7.9732542058e-02
     vertex 8.5872117708e-01 0.0000000000e+00 -7.5128368124e-02
     vertex 8.5806589271e-01 0.0000000000e+00 -8.2618302692e-02
   endloop
 endfacet
 facet normal  0.0000000000e+00 -1.0000000000e+00 0.0000000000e+00
   outer loop
     vertex 8.5872117708e-01 0.0000000000e+00 -7.5128368124e-02
     vertex 7.8861910215e-01 0.0000000000e+00 -7.9944846454e-02
     vertex 8.5806589271e-01 0.0000000000e+00 -8.2618302692e-02
   endloop
 endfacet
 facet normal  0.0000000000e+00 -1.0000000000e+00 -0.0000000000e+00
   outer loop
     vertex 8.5872117708e-01 0.0000000000e+00 -7.5128368124e-02
     vertex 7.8956979251e-01 0.0000000000e+00 -6.9078405907e-02
     vertex 7.8861910215e-01 0.0000000000e+00 -7.9944846454e-02
   endloop
 endfacet
 facet normal  0.0000000000e+00 -1.0000000000e+00 0.0000000000e+00
   outer loop
     vertex 7.8956979251e-01 0.0000000000e+00 -6.9078405907e-02
     vertex 7.0201203818e-01 0.0000000000e+00 -7.6242577155e-02
     vertex 7.8861910215e-01 0.0000000000e+00 -7.9944846454e-02
   endloop
 endfacet
 facet normal  0.0000000000e+00 -1.0000000000e+00 -0.0000000000e+00
   outer loop
     vertex 7.8956979251e-01 0.0000000000e+00 -6.9078405907e-02
     vertex 7.0329916034e-01 0.0000000000e+00 -6.1530703597e-02
     vertex 7.0201203818e-01 0.0000000000e+00 -7.6242577155e-02
   endloop
 endfacet
 facet normal  0.0000000000e+00 -1.0000000000e+00 0.0000000000e+00
   outer loop
     vertex 7.0329916034e-01 0.0000000000e+00 -6.1530703597e-02
     vertex 6.0074421376e-01 0.0000000000e+00 -7.1342431566e-02
     vertex 7.0201203818e-01 0.0000000000e+00 -7.6242577155e-02
   endloop
 endfacet
 facet normal  0.0000000000e+00 -1.0000000000e+00 -0.0000000000e+00
   outer loop
     vertex 7.0329916034e-01 0.0000000000e+00 -6.1530703597e-02
     vertex 6.0237512814e-01 0.0000000000e+00 -5.2700994902e-02
     vertex 6.0074421376e-01 0.0000000000e+00 -7.1342431566e-02
   endloop
 endfacet
 facet normal  0.0000000000e+00 -1.0000000000e+00 0.0000000000e+00
   outer loop
     vertex 6.0237512814e-01 0.0000000000e+00 -5.2700994902e-02
     vertex 4.9088739435e-01 0.0000000000e+00 -6.5176308326e-02
     vertex 6.0074421376e-01 0.0000000000e+00 -7.1342431566e-02
   endloop
 endfacet
 facet normal  0.0000000000e+00 -1.0000000000e+00 -0.0000000000e+00
   outer loop
     vertex 6.0237512814e-01 0.0000000000e+00 -5.2700994902e-02
     vertex 4.9281742666e-01 0.0000000000e+00 -4.3115938021e-02
     vertex 4.9088739435e-01 0.0000000000e+00 -6.5176308326e-02
   endloop
 endfacet
 facet normal  0.0000000000e+00 -1.0000000000e+00 0.0000000000e+00
   outer loop
     vertex 4.9281742666e-01 0.0000000000e+00 -4.3115938021e-02
     vertex 3.8313942109e-01 0.0000000000e+00 -3.3520355895e-02
     vertex 4.9088739435e-01 0.0000000000e+00 -6.5176308326e-02
   endloop
 endfacet
 facet normal  0.0000000000e+00 -1.0000000000e+00 -0.0000000000e+00
   outer loop
     vertex 4.9088739435e-01 0.0000000000e+00 -6.5176308326e-02
     vertex 3.8313942109e-01 0.0000000000e+00 -3.3520355895e-02
     vertex 3.8101324436e-01 0.0000000000e+00 -5.7822667069e-02
   endloop
 endfacet
 facet normal  0.0000000000e+00 -1.0000000000e+00 0.0000000000e+00
   outer loop
     vertex 3.8313942109e-01 0.0000000000e+00 -3.3520355895e-02
     vertex 2.8192045994e-01 0.0000000000e+00 -2.4664844261e-02
     vertex 3.8101324436e-01 0.0000000000e+00 -5.7822667069e-02
   endloop
 endfacet
 facet normal  0.0000000000e+00 -1.0000000000e+00 -0.0000000000e+00
   outer loop
     vertex 3.8101324436e-01 0.0000000000e+00 -5.7822667069e-02
     vertex 2.8192045994e-01 0.0000000000e+00 -2.4664844261e-02
     vertex 2.7974335084e-01 0.0000000000e+00 -4.9549315100e-02
   endloop
 endfacet
 facet normal  0.0000000000e+00 -1.0000000000e+00 0.0000000000e+00
   outer loop
     vertex 2.8192045994e-01 0.0000000000e+00 -2.4664844261e-02
     vertex 1.9534541109e-01 0.0000000000e+00 -1.7090508943e-02
     vertex 2.7974335084e-01 0.0000000000e+00 -4.9549315100e-02
   endloop
 endfacet
 facet normal  0.0000000000e+00 -1.0000000000e+00 -0.0000000000e+00
   outer loop
     vertex 2.7974335084e-01 0.0000000000e+00 -4.9549315100e-02
     vertex 1.9534541109e-01 0.0000000000e+00 -1.7090508943e-02
     vertex 1.9327061920e-01 0.0000000000e+00 -4.0805488792e-02
   endloop
 endfacet
 facet normal  0.0000000000e+00 -1.0000000000e+00 0.0000000000e+00
   outer loop
     vertex 1.9534541109e-01 0.0000000000e+00 -1.7090508943e-02
     vertex 1.2607624574e-01 0.0000000000e+00 -1.1030242242e-02
     vertex 1.9327061920e-01 0.0000000000e+00 -4.0805488792e-02
   endloop
 endfacet
 facet normal  0.0000000000e+00 -1.0000000000e+00 -0.0000000000e+00
   outer loop
     vertex 1.9327061920e-01 0.0000000000e+00 -4.0805488792e-02
     vertex 1.2607624574e-01 0.0000000000e+00 -1.1030242242e-02
     vertex 1.2423335775e-01 0.0000000000e+00 -3.2094548313e-02
   endloop
 endfacet
 facet normal  0.0000000000e+00 -1.0000000000e+00 0.0000000000e+00
   outer loop
     vertex 1.2607624574e-01 0.0000000000e+00 -1.1030242242e-02
     vertex 7.3703098771e-02 0.0000000000e+00 -6.4481856092e-03
     vertex 1.2423335775e-01 0.0000000000e+00 -3.2094548313e-02
   endloop
 endfacet
 facet normal  0.0000000000e+00 -1.0000000000e+00 -0.0000000000e+00
   outer loop
     vertex 1.2423335775e-01 0.0000000000e+00 -3.2094548313e-02
     vertex 7.3703098771e-02 0.0000000000e+00 -6.4481856092e-03
     vertex 7.2185601211e-02 0.0000000000e+00 -2.3793262090e-02
   endloop
 endfacet
 facet normal  0.0000000000e+00 -1.0000000000e+00 0.0000000000e+00
   outer loop
     vertex 7.3703098771e-02 0.0000000000e+00 -6.4481856092e-03
     vertex 3.6071114362e-02 0.0000000000e+00 -3.1558135874e-03
     vertex 7.2185601211e-02 0.0000000000e+00 -2.3793262090e-02
   endloop
 endfacet
 facet normal  0.0000000000e+00 -1.0000000000e+00 -0.0000000000e+00
   outer loop
     vertex 7.2185601211e-02 0.0000000000e+00 -2.3793262090e-02
     vertex 3.6071114362e-02 0.0000000000e+00 -3.1558135874e-03
     vertex 3.4947806043e-02 0.0000000000e+00 -1.5995286432e-02
   endloop
 endfacet
 facet normal  0.0000000000e+00 -1.0000000000e+00 0.0000000000e+00
   outer loop
     vertex 3.6071114362e-02 0.0000000000e+00 -3.1558135874e-03
     vertex 1.0885112636e-02 0.0000000000e+00 -9.5232395682e-04
     vertex 3.4947806043e-02 0.0000000000e+00 -1.5995286432e-02
   endloop
 endfacet
 facet normal  0.0000000000e+00 -1.0000000000e+00 -0.0000000000e+00
   outer loop
     vertex 3.4947806043e-02 0.0000000000e+00 -1.5995286432e-02
     vertex 1.0885112636e-02 0.0000000000e+00 -9.5232395682e-04
     vertex 1.0238000842e-02 0.0000000000e+00 -8.3488456028e-03
   endloop
 endfacet
 facet normal  0.0000000000e+00 -1.0000000000e+00 0.0000000000e+00
   outer loop
     vertex 1.0885112636e-02 0.0000000000e+00 -9.5232395682e-04
     vertex 0.0000000000e+00 0.0000000000e+00 0.0000000000e+00
     vertex 1.0238000842e-02 0.0000000000e+00 -8.3488456028e-03
   endloop
 endfacet
 facet normal  0.0000000000e+00 -1.0000000000e+00 0.0000000000e+00
   outer loop
     vertex 0.0000000000e+00 0.0000000000e+00 0.0000000000e+00
     vertex 1.0885112636e-02 0.0000000000e+00 -9.5232395682e-04
     vertex 1.1532224429e-02 0.0000000000e+00 6.4441976892e-03
   endloop
 endfacet
 facet normal  0.0000000000e+00 -1.0000000000e+00 0.0000000000e+00
   outer loop
     vertex 1.0885112636e-02 0.0000000000e+00 -9.5232395682e-04
     vertex 3.7194422682e-02 0.0000000000e+00 9.6836592575e-03
     vertex 1.1532224429e-02 0.0000000000e+00 6.4441976892e-03
   endloop
 endfacet
 facet normal  0.0000000000e+00 -1.0000000000e+00 0.0000000000e+00
   outer loop
     vertex 1.0885112636e-02 0.0000000000e+00 -9.5232395682e-04
     vertex 3.6071114362e-02 0.0000000000e+00 -3.1558135874e-03
     vertex 3.7194422682e-02 0.0000000000e+00 9.6836592575e-03
   endloop
 endfacet
 facet normal  0.0000000000e+00 -1.0000000000e+00 0.0000000000e+00
   outer loop
     vertex 3.6071114362e-02 0.0000000000e+00 -3.1558135874e-03
     vertex 7.5220596331e-02 0.0000000000e+00 1.0896890872e-02
     vertex 3.7194422682e-02 0.0000000000e+00 9.6836592575e-03
   endloop
 endfacet
 facet normal  0.0000000000e+00 -1.0000000000e+00 0.0000000000e+00
   outer loop
     vertex 3.6071114362e-02 0.0000000000e+00 -3.1558135874e-03
     vertex 7.3703098771e-02 0.0000000000e+00 -6.4481856092e-03
     vertex 7.5220596331e-02 0.0000000000e+00 1.0896890872e-02
   endloop
 endfacet
 facet normal  -0.0000000000e+00 -1.0000000000e+00 0.0000000000e+00
   outer loop
     vertex 7.3703098771e-02 0.0000000000e+00 -6.4481856092e-03
     vertex 1.2791913372e-01 0.0000000000e+00 1.0034063829e-02
     vertex 7.5220596331e-02 0.0000000000e+00 1.0896890872e-02
   endloop
 endfacet
 facet normal  0.0000000000e+00 -1.0000000000e+00 0.0000000000e+00
   outer loop
     vertex 7.3703098771e-02 0.0000000000e+00 -6.4481856092e-03
     vertex 1.2607624574e-01 0.0000000000e+00 -1.1030242242e-02
     vertex 1.2791913372e-01 0.0000000000e+00 1.0034063829e-02
   endloop
 endfacet
 facet normal  -0.0000000000e+00 -1.0000000000e+00 0.0000000000e+00
   outer loop
     vertex 1.2607624574e-01 0.0000000000e+00 -1.1030242242e-02
     vertex 1.9742020299e-01 0.0000000000e+00 6.6244709072e-03
     vertex 1.2791913372e-01 0.0000000000e+00 1.0034063829e-02
   endloop
 endfacet
 facet normal  0.0000000000e+00 -1.0000000000e+00 0.0000000000e+00
   outer loop
     vertex 1.2607624574e-01 0.0000000000e+00 -1.1030242242e-02
     vertex 1.9534541109e-01 0.0000000000e+00 -1.7090508943e-02
     vertex 1.9742020299e-01 0.0000000000e+00 6.6244709072e-03
   endloop
 endfacet
 facet normal  -0.0000000000e+00 -1.0000000000e+00 0.0000000000e+00
   outer loop
     vertex 1.9534541109e-01 0.0000000000e+00 -1.7090508943e-02
     vertex 2.8409756904e-01 0.0000000000e+00 2.1962657803e-04
     vertex 1.9742020299e-01 0.0000000000e+00 6.6244709072e-03
   endloop
 endfacet
 facet normal  0.0000000000e+00 -1.0000000000e+00 0.0000000000e+00
   outer loop
     vertex 1.9534541109e-01 0.0000000000e+00 -1.7090508943e-02
     vertex 2.8192045994e-01 0.0000000000e+00 -2.4664844261e-02
     vertex 2.8409756904e-01 0.0000000000e+00 2.1962657803e-04
   endloop
 endfacet
 facet normal  -0.0000000000e+00 -1.0000000000e+00 0.0000000000e+00
   outer loop
     vertex 2.8192045994e-01 0.0000000000e+00 -2.4664844261e-02
     vertex 3.8526559782e-01 0.0000000000e+00 -9.2180447217e-03
     vertex 2.8409756904e-01 0.0000000000e+00 2.1962657803e-04
   endloop
 endfacet
 facet normal  0.0000000000e+00 -1.0000000000e+00 0.0000000000e+00
   outer loop
     vertex 2.8192045994e-01 0.0000000000e+00 -2.4664844261e-02
     vertex 3.8313942109e-01 0.0000000000e+00 -3.3520355895e-02
     vertex 3.8526559782e-01 0.0000000000e+00 -9.2180447217e-03
   endloop
 endfacet
 facet normal  -0.0000000000e+00 -1.0000000000e+00 0.0000000000e+00
   outer loop
     vertex 3.8313942109e-01 0.0000000000e+00 -3.3520355895e-02
     vertex 4.9474745898e-01 0.0000000000e+00 -2.1055567716e-02
     vertex 3.8526559782e-01 0.0000000000e+00 -9.2180447217e-03
   endloop
 endfacet
 facet normal  0.0000000000e+00 -1.0000000000e+00 0.0000000000e+00
   outer loop
     vertex 3.8313942109e-01 0.0000000000e+00 -3.3520355895e-02
     vertex 4.9281742666e-01 0.0000000000e+00 -4.3115938021e-02
     vertex 4.9474745898e-01 0.0000000000e+00 -2.1055567716e-02
   endloop
 endfacet
 facet normal  0.0000000000e+00 -1.0000000000e+00 0.0000000000e+00
   outer loop
     vertex 4.9281742666e-01 0.0000000000e+00 -4.3115938021e-02
     vertex 6.0237512814e-01 0.0000000000e+00 -5.2700994902e-02
     vertex 4.9474745898e-01 0.0000000000e+00 -2.1055567716e-02
   endloop
 endfacet
 facet normal  0.0000000000e+00 -1.0000000000e+00 0.0000000000e+00
   outer loop
     vertex 4.9474745898e-01 0.0000000000e+00 -2.1055567716e-02
     vertex 6.0237512814e-01 0.0000000000e+00 -5.2700994902e-02
     vertex 6.0400604252e-01 0.0000000000e+00 -3.4059558238e-02
   endloop
 endfacet
 facet normal  0.0000000000e+00 -1.0000000000e+00 0.0000000000e+00
   outer loop
     vertex 6.0237512814e-01 0.0000000000e+00 -5.2700994902e-02
     vertex 7.0329916034e-01 0.0000000000e+00 -6.1530703597e-02
     vertex 6.0400604252e-01 0.0000000000e+00 -3.4059558238e-02
   endloop
 endfacet
 facet normal  0.0000000000e+00 -1.0000000000e+00 0.0000000000e+00
   outer loop
     vertex 6.0400604252e-01 0.0000000000e+00 -3.4059558238e-02
     vertex 7.0329916034e-01 0.0000000000e+00 -6.1530703597e-02
     vertex 7.0458628250e-01 0.0000000000e+00 -4.6818830039e-02
   endloop
 endfacet
 facet normal  0.0000000000e+00 -1.0000000000e+00 0.0000000000e+00
   outer loop
     vertex 7.0329916034e-01 0.0000000000e+00 -6.1530703597e-02
     vertex 7.8956979251e-01 0.0000000000e+00 -6.9078405907e-02
     vertex 7.0458628250e-01 0.0000000000e+00 -4.6818830039e-02
   endloop
 endfacet
 facet normal  0.0000000000e+00 -1.0000000000e+00 0.0000000000e+00
   outer loop
     vertex 7.0458628250e-01 0.0000000000e+00 -4.6818830039e-02
     vertex 7.8956979251e-01 0.0000000000e+00 -6.9078405907e-02
     vertex 7.9052048287e-01 0.0000000000e+00 -5.8211965360e-02
   endloop
 endfacet
 facet normal  0.0000000000e+00 -1.0000000000e+00 0.0000000000e+00
   outer loop
     vertex 7.8956979251e-01 0.0000000000e+00 -6.9078405907e-02
     vertex 8.5872117708e-01 0.0000000000e+00 -7.5128368124e-02
     vertex 7.9052048287e-01 0.0000000000e+00 -5.8211965360e-02
   endloop
 endfacet
 facet normal  0.0000000000e+00 -1.0000000000e+00 0.0000000000e+00
   outer loop
     vertex 7.9052048287e-01 0.0000000000e+00 -5.8211965360e-02
     vertex 8.5872117708e-01 0.0000000000e+00 -7.5128368124e-02
     vertex 8.5937646145e-01 0.0000000000e+00 -6.7638433556e-02
   endloop
 endfacet
 facet normal  0.0000000000e+00 -1.0000000000e+00 0.0000000000e+00
   outer loop
     vertex 8.5872117708e-01 0.0000000000e+00 -7.5128368124e-02
     vertex 9.1134712595e-01 0.0000000000e+00 -7.9732542058e-02
     vertex 8.5937646145e-01 0.0000000000e+00 -6.7638433556e-02
   endloop
 endfacet
 facet normal  0.0000000000e+00 -1.0000000000e+00 0.0000000000e+00
   outer loop
     vertex 8.5937646145e-01 0.0000000000e+00 -6.7638433556e-02
     vertex 9.1134712595e-01 0.0000000000e+00 -7.9732542058e-02
     vertex 9.1176254451e-01 0.0000000000e+00 -7.4984286192e-02
   endloop
 endfacet
 facet normal  0.0000000000e+00 -1.0000000000e+00 0.0000000000e+00
   outer loop
     vertex 9.1134712595e-01 0.0000000000e+00 -7.9732542058e-02
     vertex 9.4983616437e-01 0.0000000000e+00 -8.3099896589e-02
     vertex 9.1176254451e-01 0.0000000000e+00 -7.4984286192e-02
   endloop
 endfacet
 facet normal  0.0000000000e+00 -1.0000000000e+00 0.0000000000e+00
   outer loop
     vertex 9.1176254451e-01 0.0000000000e+00 -7.4984286192e-02
     vertex 9.4983616437e-01 0.0000000000e+00 -8.3099896589e-02
     vertex 9.5006766674e-01 0.0000000000e+00 -8.0453812366e-02
   endloop
 endfacet
 facet normal  0.0000000000e+00 -1.0000000000e+00 0.0000000000e+00
   outer loop
     vertex 9.4983616437e-01 0.0000000000e+00 -8.3099896589e-02
     vertex 9.7717543414e-01 0.0000000000e+00 -8.5491772763e-02
     vertex 9.5006766674e-01 0.0000000000e+00 -8.0453812366e-02
   endloop
 endfacet
 facet normal  0.0000000000e+00 -1.0000000000e+00 0.0000000000e+00
   outer loop
     vertex 9.5006766674e-01 0.0000000000e+00 -8.0453812366e-02
     vertex 9.7717543414e-01 0.0000000000e+00 -8.5491772763e-02
     vertex 9.7727176066e-01 0.0000000000e+00 -8.4390755591e-02
   endloop
 endfacet
 facet normal  0.0000000000e+00 -1.0000000000e+00 0.0000000000e+00
   outer loop
     vertex 9.7717543414e-01 0.0000000000e+00 -8.5491772763e-02
     vertex 9.9619469809e-01 0.0000000000e+00 -8.7155742748e-02
     vertex 9.7727176066e-01 0.0000000000e+00 -8.4390755591e-02
   endloop
 endfacet
 facet normal  0.0000000000e+00 -1.0000000000e+00 -0.0000000000e+00
   outer loop
     vertex 9.9619469809e-01 0.0000000000e+00 -8.7155742748e-02
     vertex 9.7707910762e-01 0.0000000000e+00 -8.6592789935e-02
     vertex 9.7698278110e-01 0.0000000000e+00 -8.7693807107e-02
   endloop
 endfacet
 facet normal  0.0000000000e+00 -1.0000000000e+00 0.0000000000e+00
   outer loop
     vertex 9.7707910762e-01 0.0000000000e+00 -8.6592789935e-02
     vertex 9.4937315963e-01 0.0000000000e+00 -8.8392065036e-02
     vertex 9.7698278110e-01 0.0000000000e+00 -8.7693807107e-02
   endloop
 endfacet
 facet normal  0.0000000000e+00 -1.0000000000e+00 -0.0000000000e+00
   outer loop
     vertex 9.7707910762e-01 0.0000000000e+00 -8.6592789935e-02
     vertex 9.4960466200e-01 0.0000000000e+00 -8.5745980813e-02
     vertex 9.4937315963e-01 0.0000000000e+00 -8.8392065036e-02
   endloop
 endfacet
 facet normal  0.0000000000e+00 -1.0000000000e+00 0.0000000000e+00
   outer loop
     vertex 9.4960466200e-01 0.0000000000e+00 -8.5745980813e-02
     vertex 9.1051628883e-01 0.0000000000e+00 -8.9229053788e-02
     vertex 9.4937315963e-01 0.0000000000e+00 -8.8392065036e-02
   endloop
 endfacet
 facet normal  0.0000000000e+00 -1.0000000000e+00 -0.0000000000e+00
   outer loop
     vertex 9.4960466200e-01 0.0000000000e+00 -8.5745980813e-02
     vertex 9.1093170739e-01 0.0000000000e+00 -8.4480797923e-02
     vertex 9.1051628883e-01 0.0000000000e+00 -8.9229053788e-02
   endloop
 endfacet
 facet normal  0.0000000000e+00 -1.0000000000e+00 0.0000000000e+00
   outer loop
     vertex 9.1093170739e-01 0.0000000000e+00 -8.4480797923e-02
     vertex 8.5741060835e-01 0.0000000000e+00 -9.0108237260e-02
     vertex 9.1051628883e-01 0.0000000000e+00 -8.9229053788e-02
   endloop
 endfacet
 facet normal  0.0000000000e+00 -1.0000000000e+00 -0.0000000000e+00
   outer loop
     vertex 9.1093170739e-01 0.0000000000e+00 -8.4480797923e-02
     vertex 8.5806589271e-01 0.0000000000e+00 -8.2618302692e-02
     vertex 8.5741060835e-01 0.0000000000e+00 -9.0108237260e-02
   endloop
 endfacet
 facet normal  0.0000000000e+00 -1.0000000000e+00 0.0000000000e+00
   outer loop
     vertex 8.5806589271e-01 0.0000000000e+00 -8.2618302692e-02
     vertex 7.8766841178e-01 0.0000000000e+00 -9.0811287001e-02
     vertex 8.5741060835e-01 0.0000000000e+00 -9.0108237260e-02
   endloop
 endfacet
 facet normal  0.0000000000e+00 -1.0000000000e+00 -0.0000000000e+00
   outer loop
     vertex 8.5806589271e-01 0.0000000000e+00 -8.2618302692e-02
     vertex 7.8861910215e-01 0.0000000000e+00 -7.9944846454e-02
     vertex 7.8766841178e-01 0.0000000000e+00 -9.0811287001e-02
   endloop
 endfacet
 facet normal  0.0000000000e+00 -1.0000000000e+00 0.0000000000e+00
   outer loop
     vertex 7.8861910215e-01 0.0000000000e+00 -7.9944846454e-02
     vertex 7.0072491603e-01 0.0000000000e+00 -9.0954450714e-02
     vertex 7.8766841178e-01 0.0000000000e+00 -9.0811287001e-02
   endloop
 endfacet
 facet normal  0.0000000000e+00 -1.0000000000e+00 -0.0000000000e+00
   outer loop
     vertex 7.8861910215e-01 0.0000000000e+00 -7.9944846454e-02
     vertex 7.0201203818e-01 0.0000000000e+00 -7.6242577155e-02
     vertex 7.0072491603e-01 0.0000000000e+00 -9.0954450714e-02
   endloop
 endfacet
 facet normal  0.0000000000e+00 -1.0000000000e+00 0.0000000000e+00
   outer loop
     vertex 7.0201203818e-01 0.0000000000e+00 -7.6242577155e-02
     vertex 5.9911329938e-01 0.0000000000e+00 -8.9983868230e-02
     vertex 7.0072491603e-01 0.0000000000e+00 -9.0954450714e-02
   endloop
 endfacet
 facet normal  0.0000000000e+00 -1.0000000000e+00 -0.0000000000e+00
   outer loop
     vertex 7.0201203818e-01 0.0000000000e+00 -7.6242577155e-02
     vertex 6.0074421376e-01 0.0000000000e+00 -7.1342431566e-02
     vertex 5.9911329938e-01 0.0000000000e+00 -8.9983868230e-02
   endloop
 endfacet
 facet normal  0.0000000000e+00 -1.0000000000e+00 0.0000000000e+00
   outer loop
     vertex 6.0074421376e-01 0.0000000000e+00 -7.1342431566e-02
     vertex 4.8895736203e-01 0.0000000000e+00 -8.7236678631e-02
     vertex 5.9911329938e-01 0.0000000000e+00 -8.9983868230e-02
   endloop
 endfacet
 facet normal  0.0000000000e+00 -1.0000000000e+00 -0.0000000000e+00
   outer loop
     vertex 6.0074421376e-01 0.0000000000e+00 -7.1342431566e-02
     vertex 4.9088739435e-01 0.0000000000e+00 -6.5176308326e-02
     vertex 4.8895736203e-01 0.0000000000e+00 -8.7236678631e-02
   endloop
 endfacet
 facet normal  0.0000000000e+00 -1.0000000000e+00 0.0000000000e+00
   outer loop
     vertex 4.9088739435e-01 0.0000000000e+00 -6.5176308326e-02
     vertex 3.8101324436e-01 0.0000000000e+00 -5.7822667069e-02
     vertex 4.8895736203e-01 0.0000000000e+00 -8.7236678631e-02
   endloop
 endfacet
 facet normal  0.0000000000e+00 -1.0000000000e+00 -0.0000000000e+00
   outer loop
     vertex 4.8895736203e-01 0.0000000000e+00 -8.7236678631e-02
     vertex 3.8101324436e-01 0.0000000000e+00 -5.7822667069e-02
     vertex 3.7888706764e-01 0.0000000000e+00 -8.2124978242e-02
   endloop
 endfacet
 facet normal  0.0000000000e+00 -1.0000000000e+00 0.0000000000e+00
   outer loop
     vertex 3.8101324436e-01 0.0000000000e+00 -5.7822667069e-02
     vertex 2.7974335084e-01 0.0000000000e+00 -4.9549315100e-02
     vertex 3.7888706764e-01 0.0000000000e+00 -8.2124978242e-02
   endloop
 endfacet
 facet normal  0.0000000000e+00 -1.0000000000e+00 -0.0000000000e+00
   outer loop
     vertex 3.7888706764e-01 0.0000000000e+00 -8.2124978242e-02
     vertex 2.7974335084e-01 0.0000000000e+00 -4.9549315100e-02
     vertex 2.7756624175e-01 0.0000000000e+00 -7.4433785939e-02
   endloop
 endfacet
 facet normal  0.0000000000e+00 -1.0000000000e+00 0.0000000000e+00
   outer loop
     vertex 2.7974335084e-01 0.0000000000e+00 -4.9549315100e-02
     vertex 1.9327061920e-01 0.0000000000e+00 -4.0805488792e-02
     vertex 2.7756624175e-01 0.0000000000e+00 -7.4433785939e-02
   endloop
 endfacet
 facet normal  0.0000000000e+00 -1.0000000000e+00 -0.0000000000e+00
   outer loop
     vertex 2.7756624175e-01 0.0000000000e+00 -7.4433785939e-02
     vertex 1.9327061920e-01 0.0000000000e+00 -4.0805488792e-02
     vertex 1.9119582731e-01 0.0000000000e+00 -6.4520468642e-02
   endloop
 endfacet
 facet normal  0.0000000000e+00 -1.0000000000e+00 0.0000000000e+00
   outer loop
     vertex 1.9327061920e-01 0.0000000000e+00 -4.0805488792e-02
     vertex 1.2423335775e-01 0.0000000000e+00 -3.2094548313e-02
     vertex 1.9119582731e-01 0.0000000000e+00 -6.4520468642e-02
   endloop
 endfacet
 facet normal  0.0000000000e+00 -1.0000000000e+00 -0.0000000000e+00
   outer loop
     vertex 1.9119582731e-01 0.0000000000e+00 -6.4520468642e-02
     vertex 1.2423335775e-01 0.0000000000e+00 -3.2094548313e-02
     vertex 1.2239046976e-01 0.0000000000e+00 -5.3158854384e-02
   endloop
 endfacet
 facet normal  0.0000000000e+00 -1.0000000000e+00 0.0000000000e+00
   outer loop
     vertex 1.2423335775e-01 0.0000000000e+00 -3.2094548313e-02
     vertex 7.2185601211e-02 0.0000000000e+00 -2.3793262090e-02
     vertex 1.2239046976e-01 0.0000000000e+00 -5.3158854384e-02
   endloop
 endfacet
 facet normal  0.0000000000e+00 -1.0000000000e+00 -0.0000000000e+00
   outer loop
     vertex 1.2239046976e-01 0.0000000000e+00 -5.3158854384e-02
     vertex 7.2185601211e-02 0.0000000000e+00 -2.3793262090e-02
     vertex 7.0668103650e-02 0.0000000000e+00 -4.1138338571e-02
   endloop
 endfacet
 facet normal  0.0000000000e+00 -1.0000000000e+00 0.0000000000e+00
   outer loop
     vertex 7.2185601211e-02 0.0000000000e+00 -2.3793262090e-02
     vertex 3.4947806043e-02 0.0000000000e+00 -1.5995286432e-02
     vertex 7.0668103650e-02 0.0000000000e+00 -4.1138338571e-02
   endloop
 endfacet
 facet normal  0.0000000000e+00 -1.0000000000e+00 -0.0000000000e+00
   outer loop
     vertex 7.0668103650e-02 0.0000000000e+00 -4.1138338571e-02
     vertex 3.4947806043e-02 0.0000000000e+00 -1.5995286432e-02
     vertex 3.3824497723e-02 0.0000000000e+00 -2.8834759277e-02
   endloop
 endfacet
 facet normal  0.0000000000e+00 -1.0000000000e+00 0.0000000000e+00
   outer loop
     vertex 3.4947806043e-02 0.0000000000e+00 -1.5995286432e-02
     vertex 1.0238000842e-02 0.0000000000e+00 -8.3488456028e-03
     vertex 3.3824497723e-02 0.0000000000e+00 -2.8834759277e-02
   endloop
 endfacet
 facet normal  0.0000000000e+00 -1.0000000000e+00 -0.0000000000e+00
   outer loop
     vertex 3.3824497723e-02 0.0000000000e+00 -2.8834759277e-02
     vertex 1.0238000842e-02 0.0000000000e+00 -8.3488456028e-03
     vertex 9.5908890485e-03 0.0000000000e+00 -1.5745367249e-02
   endloop
 endfacet
 facet normal  0.0000000000e+00 -1.0000000000e+00 0.0000000000e+00
   outer loop
     vertex 1.0238000842e-02 0.0000000000e+00 -8.3488456028e-03
     vertex 0.0000000000e+00 0.0000000000e+00 0.0000000000e+00
     vertex 9.5908890485e-03 0.0000000000e+00 -1.5745367249e-02
   endloop
 endfacet
 facet normal  -0.0000000000e+00 -1.0000000000e+00 0.0000000000e+00
   outer loop
     vertex 0.0000000000e+00 0.0000000000e+00 0.0000000000e+00
     vertex 1.1532224429e-02 0.0000000000e+00 6.4441976892e-03
     vertex 1.2179336223e-02 0.0000000000e+00 1.3840719335e-02
   endloop
 endfacet
 facet normal  0.0000000000e+00 -1.0000000000e+00 0.0000000000e+00
   outer loop
     vertex 1.1532224429e-02 0.0000000000e+00 6.4441976892e-03
     vertex 3.8317731001e-02 0.0000000000e+00 2.2523132102e-02
     vertex 1.2179336223e-02 0.0000000000e+00 1.3840719335e-02
   endloop
 endfacet
 facet normal  -0.0000000000e+00 -1.0000000000e+00 0.0000000000e+00
   outer loop
     vertex 1.1532224429e-02 0.0000000000e+00 6.4441976892e-03
     vertex 3.7194422682e-02 0.0000000000e+00 9.6836592575e-03
     vertex 3.8317731001e-02 0.0000000000e+00 2.2523132102e-02
   endloop
 endfacet
 facet normal  0.0000000000e+00 -1.0000000000e+00 0.0000000000e+00
   outer loop
     vertex 3.7194422682e-02 0.0000000000e+00 9.6836592575e-03
     vertex 7.6738093891e-02 0.0000000000e+00 2.8241967353e-02
     vertex 3.8317731001e-02 0.0000000000e+00 2.2523132102e-02
   endloop
 endfacet
 facet normal  -0.0000000000e+00 -1.0000000000e+00 0.0000000000e+00
   outer loop
     vertex 3.7194422682e-02 0.0000000000e+00 9.6836592575e-03
     vertex 7.5220596331e-02 0.0000000000e+00 1.0896890872e-02
     vertex 7.6738093891e-02 0.0000000000e+00 2.8241967353e-02
   endloop
 endfacet
 facet normal  0.0000000000e+00 -1.0000000000e+00 0.0000000000e+00
   outer loop
     vertex 7.5220596331e-02 0.0000000000e+00 1.0896890872e-02
     vertex 1.2976202171e-01 0.0000000000e+00 3.1098369900e-02
     vertex 7.6738093891e-02 0.0000000000e+00 2.8241967353e-02
   endloop
 endfacet
 facet normal  0.0000000000e+00 -1.0000000000e+00 0.0000000000e+00
   outer loop
     vertex 7.5220596331e-02 0.0000000000e+00 1.0896890872e-02
     vertex 1.2791913372e-01 0.0000000000e+00 1.0034063829e-02
     vertex 1.2976202171e-01 0.0000000000e+00 3.1098369900e-02
   endloop
 endfacet
 facet normal  -0.0000000000e+00 -1.0000000000e+00 0.0000000000e+00
   outer loop
     vertex 1.2791913372e-01 0.0000000000e+00 1.0034063829e-02
     vertex 1.9949499488e-01 0.0000000000e+00 3.0339450757e-02
     vertex 1.2976202171e-01 0.0000000000e+00 3.1098369900e-02
   endloop
 endfacet
 facet normal  0.0000000000e+00 -1.0000000000e+00 0.0000000000e+00
   outer loop
     vertex 1.2791913372e-01 0.0000000000e+00 1.0034063829e-02
     vertex 1.9742020299e-01 0.0000000000e+00 6.6244709072e-03
     vertex 1.9949499488e-01 0.0000000000e+00 3.0339450757e-02
   endloop
 endfacet
 facet normal  -0.0000000000e+00 -1.0000000000e+00 0.0000000000e+00
   outer loop
     vertex 1.9742020299e-01 0.0000000000e+00 6.6244709072e-03
     vertex 2.8627467813e-01 0.0000000000e+00 2.5104097417e-02
     vertex 1.9949499488e-01 0.0000000000e+00 3.0339450757e-02
   endloop
 endfacet
 facet normal  0.0000000000e+00 -1.0000000000e+00 0.0000000000e+00
   outer loop
     vertex 1.9742020299e-01 0.0000000000e+00 6.6244709072e-03
     vertex 2.8409756904e-01 0.0000000000e+00 2.1962657803e-04
     vertex 2.8627467813e-01 0.0000000000e+00 2.5104097417e-02
   endloop
 endfacet
 facet normal  -0.0000000000e+00 -1.0000000000e+00 0.0000000000e+00
   outer loop
     vertex 2.8409756904e-01 0.0000000000e+00 2.1962657803e-04
     vertex 3.8739177454e-01 0.0000000000e+00 1.5084266452e-02
     vertex 2.8627467813e-01 0.0000000000e+00 2.5104097417e-02
   endloop
 endfacet
 facet normal  0.0000000000e+00 -1.0000000000e+00 0.0000000000e+00
   outer loop
     vertex 2.8409756904e-01 0.0000000000e+00 2.1962657803e-04
     vertex 3.8526559782e-01 0.0000000000e+00 -9.2180447217e-03
     vertex 3.8739177454e-01 0.0000000000e+00 1.5084266452e-02
   endloop
 endfacet
 facet normal  -0.0000000000e+00 -1.0000000000e+00 0.0000000000e+00
   outer loop
     vertex 3.8526559782e-01 0.0000000000e+00 -9.2180447217e-03
     vertex 4.9667749129e-01 0.0000000000e+00 1.0048025890e-03
     vertex 3.8739177454e-01 0.0000000000e+00 1.5084266452e-02
   endloop
 endfacet
 facet normal  0.0000000000e+00 -1.0000000000e+00 0.0000000000e+00
   outer loop
     vertex 3.8526559782e-01 0.0000000000e+00 -9.2180447217e-03
     vertex 4.9474745898e-01 0.0000000000e+00 -2.1055567716e-02
     vertex 4.9667749129e-01 0.0000000000e+00 1.0048025890e-03
   endloop
 endfacet
 facet normal  0.0000000000e+00 -1.0000000000e+00 0.0000000000e+00
   outer loop
     vertex 4.9474745898e-01 0.0000000000e+00 -2.1055567716e-02
     vertex 6.0400604252e-01 0.0000000000e+00 -3.4059558238e-02
     vertex 4.9667749129e-01 0.0000000000e+00 1.0048025890e-03
   endloop
 endfacet
 facet normal  0.0000000000e+00 -1.0000000000e+00 0.0000000000e+00
   outer loop
     vertex 4.9667749129e-01 0.0000000000e+00 1.0048025890e-03
     vertex 6.0400604252e-01 0.0000000000e+00 -3.4059558238e-02
     vertex 6.0563695690e-01 0.0000000000e+00 -1.5418121574e-02
   endloop
 endfacet
 facet normal  0.0000000000e+00 -1.0000000000e+00 0.0000000000e+00
   outer loop
     vertex 6.0400604252e-01 0.0000000000e+00 -3.4059558238e-02
     vertex 7.0458628250e-01 0.0000000000e+00 -4.6818830039e-02
     vertex 6.0563695690e-01 0.0000000000e+00 -1.5418121574e-02
   endloop
 endfacet
 facet normal  0.0000000000e+00 -1.0000000000e+00 0.0000000000e+00
   outer loop
     vertex 6.0563695690e-01 0.0000000000e+00 -1.5418121574e-02
     vertex 7.0458628250e-01 0.0000000000e+00 -4.6818830039e-02
     vertex 7.0587340465e-01 0.0000000000e+00 -3.2106956480e-02
   endloop
 endfacet
 facet normal  0.0000000000e+00 -1.0000000000e+00 0.0000000000e+00
   outer loop
     vertex 7.0458628250e-01 0.0000000000e+00 -4.6818830039e-02
     vertex 7.9052048287e-01 0.0000000000e+00 -5.8211965360e-02
     vertex 7.0587340465e-01 0.0000000000e+00 -3.2106956480e-02
   endloop
 endfacet
 facet normal  0.0000000000e+00 -1.0000000000e+00 0.0000000000e+00
   outer loop
     vertex 7.0587340465e-01 0.0000000000e+00 -3.2106956480e-02
     vertex 7.9052048287e-01 0.0000000000e+00 -5.8211965360e-02
     vertex 7.9147117323e-01 0.0000000000e+00 -4.7345524812e-02
   endloop
 endfacet
 facet normal  0.0000000000e+00 -1.0000000000e+00 0.0000000000e+00
   outer loop
     vertex 7.9052048287e-01 0.0000000000e+00 -5.8211965360e-02
     vertex 8.5937646145e-01 0.0000000000e+00 -6.7638433556e-02
     vertex 7.9147117323e-01 0.0000000000e+00 -4.7345524812e-02
   endloop
 endfacet
 facet normal  0.0000000000e+00 -1.0000000000e+00 0.0000000000e+00
   outer loop
     vertex 7.9147117323e-01 0.0000000000e+00 -4.7345524812e-02
     vertex 8.5937646145e-01 0.0000000000e+00 -6.7638433556e-02
     vertex 8.6003174581e-01 0.0000000000e+00 -6.0148498988e-02
   endloop
 endfacet
 facet normal  0.0000000000e+00 -1.0000000000e+00 0.0000000000e+00
   outer loop
     vertex 8.5937646145e-01 0.0000000000e+00 -6.7638433556e-02
     vertex 9.1176254451e-01 0.0000000000e+00 -7.4984286192e-02
     vertex 8.6003174581e-01 0.0000000000e+00 -6.0148498988e-02
   endloop
 endfacet
 facet normal  0.0000000000e+00 -1.0000000000e+00 0.0000000000e+00
   outer loop
     vertex 8.6003174581e-01 0.0000000000e+00 -6.0148498988e-02
     vertex 9.1176254451e-01 0.0000000000e+00 -7.4984286192e-02
     vertex 9.1217796307e-01 0.0000000000e+00 -7.0236030327e-02
   endloop
 endfacet
 facet normal  0.0000000000e+00 -1.0000000000e+00 0.0000000000e+00
   outer loop
     vertex 9.1176254451e-01 0.0000000000e+00 -7.4984286192e-02
     vertex 9.5006766674e-01 0.0000000000e+00 -8.0453812366e-02
     vertex 9.1217796307e-01 0.0000000000e+00 -7.0236030327e-02
   endloop
 endfacet
 facet normal  0.0000000000e+00 -1.0000000000e+00 0.0000000000e+00
   outer loop
     vertex 9.1217796307e-01 0.0000000000e+00 -7.0236030327e-02
     vertex 9.5006766674e-01 0.0000000000e+00 -8.0453812366e-02
     vertex 9.5029916912e-01 0.0000000000e+00 -7.7807728143e-02
   endloop
 endfacet
 facet normal  0.0000000000e+00 -1.0000000000e+00 0.0000000000e+00
   outer loop
     vertex 9.5006766674e-01 0.0000000000e+00 -8.0453812366e-02
     vertex 9.7727176066e-01 0.0000000000e+00 -8.4390755591e-02
     vertex 9.5029916912e-01 0.0000000000e+00 -7.7807728143e-02
   endloop
 endfacet
 facet normal  0.0000000000e+00 -1.0000000000e+00 0.0000000000e+00
   outer loop
     vertex 9.5029916912e-01 0.0000000000e+00 -7.7807728143e-02
     vertex 9.7727176066e-01 0.0000000000e+00 -8.4390755591e-02
     vertex 9.7736808718e-01 0.0000000000e+00 -8.3289738419e-02
   endloop
 endfacet
 facet normal  0.0000000000e+00 -1.0000000000e+00 0.0000000000e+00
   outer loop
     vertex 9.7727176066e-01 0.0000000000e+00 -8.4390755591e-02
     vertex 9.9619469809e-01 0.0000000000e+00 -8.7155742748e-02
     vertex 9.7736808718e-01 0.0000000000e+00 -8.3289738419e-02
   endloop
 endfacet
 facet normal  2.7995824670e-02 0.0000000000e+00 -9.9960804008e-01
   outer loop
     vertex 9.9619469809e-01 0.0000000000e+00 -8.7155742748e-02
     vertex 9.7698278110e-01 2.0000000000e-01 -8.7693807107e-02
     vertex 9.9619469809e-01 2.0000000000e-01 -8.7155742748e-02
   endloop
 endfacet
 facet normal  2.7995824670e-02 0.0000000000e+00 -9.9960804008e-01
   outer loop
     vertex 9.9619469809e-01 0.0000000000e+00 -8.7155742748e-02
     vertex 9.7698278110e-01 0.0000000000e+00 -8.7693807107e-02
     vertex 9.7698278110e-01 2.0000000000e-01 -8.7693807107e-02
   endloop
 endfacet
 facet normal  2.5282299970e-02 0.0000000000e+00 -9.9968035157e-01
   outer loop
     vertex 9.7698278110e-01 0.0000000000e+00 -8.7693807107e-02
     vertex 9.4937315963e-01 2.0000000000e-01 -8.8392065036e-02
     vertex 9.7698278110e-01 2.0000000000e-01 -8.7693807107e-02
   endloop
 endfacet
 facet normal  2.5282299970e-02 0.0000000000e+00 -9.9968035157e-01
   outer loop
     vertex 9.7698278110e-01 0.0000000000e+00 -8.7693807107e-02
     vertex 9.4937315963e-01 0.0000000000e+00 -8.8392065036e-02
     vertex 9.4937315963e-01 2.0000000000e-01 -8.8392065036e-02
   endloop
 endfacet
 facet normal  2.1535307066e-02 0.0000000000e+00 -9.9976808838e-01
   outer loop
     vertex 9.4937315963e-01 0.0000000000e+00 -8.8392065036e-02
     vertex 9.1051628883e-01 2.0000000000e-01 -8.9229053788e-02
     vertex 9.4937315963e-01 2.0000000000e-01 -8.8392065036e-02
   endloop
 endfacet
 facet normal  2.1535307066e-02 0.0000000000e+00 -9.9976808838e-01
   outer loop
     vertex 9.4937315963e-01 0.0000000000e+00 -8.8392065036e-02
     vertex 9.1051628883e-01 0.0000000000e+00 -8.9229053788e-02
     vertex 9.1051628883e-01 2.0000000000e-01 -8.9229053788e-02
   endloop
 endfacet
 facet normal  1.6553088220e-02 0.0000000000e+00 -9.9986298825e-01
   outer loop
     vertex 9.1051628883e-01 0.0000000000e+00 -8.9229053788e-02
     vertex 8.5741060835e-01 2.0000000000e-01 -9.0108237260e-02
     vertex 9.1051628883e-01 2.0000000000e-01 -8.9229053788e-02
   endloop
 endfacet
 facet normal  1.6553088220e-02 0.0000000000e+00 -9.9986298825e-01
   outer loop
     vertex 9.1051628883e-01 0.0000000000e+00 -8.9229053788e-02
     vertex 8.5741060835e-01 0.0000000000e+00 -9.0108237260e-02
     vertex 8.5741060835e-01 2.0000000000e-01 -9.0108237260e-02
   endloop
 endfacet
 facet normal  1.0080181815e-02 0.0000000000e+00 -9.9994919368e-01
   outer loop
     vertex 8.5741060835e-01 0.0000000000e+00 -9.0108237260e-02
     vertex 7.8766841178e-01 2.0000000000e-01 -9.0811287001e-02
     vertex 8.5741060835e-01 2.0000000000e-01 -9.0108237260e-02
   endloop
 endfacet
 facet normal  1.0080181815e-02 0.0000000000e+00 -9.9994919368e-01
   outer loop
     vertex 8.5741060835e-01 0.0000000000e+00 -9.0108237260e-02
     vertex 7.8766841178e-01 0.0000000000e+00 -9.0811287001e-02
     vertex 7.8766841178e-01 2.0000000000e-01 -9.0811287001e-02
   endloop
 endfacet
 facet normal  1.6466271248e-03 0.0000000000e+00 -9.9999864431e-01
   outer loop
     vertex 7.8766841178e-01 0.0000000000e+00 -9.0811287001e-02
     vertex 7.0072491603e-01 2.0000000000e-01 -9.0954450714e-02
     vertex 7.8766841178e-01 2.0000000000e-01 -9.0811287001e-02
   endloop
 endfacet
 facet normal  1.6466271248e-03 0.0000000000e+00 -9.9999864431e-01
   outer loop
     vertex 7.8766841178e-01 0.0000000000e+00 -9.0811287001e-02
     vertex 7.0072491603e-01 0.0000000000e+00 -9.0954450714e-02
     vertex 7.0072491603e-01 2.0000000000e-01 -9.0954450714e-02
   endloop
 endfacet
 facet normal  -9.5514493454e-03 0.0000000000e+00 -9.9995438387e-01
   outer loop
     vertex 7.0072491603e-01 0.0000000000e+00 -9.0954450714e-02
     vertex 5.9911329938e-01 2.0000000000e-01 -8.9983868230e-02
     vertex 7.0072491603e-01 2.0000000000e-01 -9.0954450714e-02
   endloop
 endfacet
 facet normal  -9.5514493454e-03 0.0000000000e+00 -9.9995438387e-01
   outer loop
     vertex 7.0072491603e-01 0.0000000000e+00 -9.0954450714e-02
     vertex 5.9911329938e-01 0.0000000000e+00 -8.9983868230e-02
     vertex 5.9911329938e-01 2.0000000000e-01 -8.9983868230e-02
   endloop
 endfacet
 facet normal  -2.4931345008e-02 0.0000000000e+00 -9.9968916571e-01
   outer loop
     vertex 5.9911329938e-01 0.0000000000e+00 -8.9983868230e-02
     vertex 4.8895736203e-01 2.0000000000e-01 -8.7236678631e-02
     vertex 5.9911329938e-01 2.0000000000e-01 -8.9983868230e-02
   endloop
 endfacet
 facet normal  -2.4931345008e-02 0.0000000000e+00 -9.9968916571e-01
   outer loop
     vertex 5.9911329938e-01 0.0000000000e+00 -8.9983868230e-02
     vertex 4.8895736203e-01 0.0000000000e+00 -8.7236678631e-02
     vertex 4.8895736203e-01 2.0000000000e-01 -8.7236678631e-02
   endloop
 endfacet
 facet normal  -4.6390328150e-02 0.0000000000e+00 -9.9892338918e-01
   outer loop
     vertex 4.8895736203e-01 0.0000000000e+00 -8.7236678631e-02
     vertex 3.7888706764e-01 0.0000000000e+00 -8.2124978242e-02
     vertex 4.8895736203e-01 2.0000000000e-01 -8.7236678631e-02
   endloop
 endfacet
 facet normal  -4.6390328150e-02 0.0000000000e+00 -9.9892338918e-01
   outer loop
     vertex 4.8895736203e-01 2.0000000000e-01 -8.7236678631e-02
     vertex 3.7888706764e-01 0.0000000000e+00 -8.2124978242e-02
     vertex 3.7888706764e-01 2.0000000000e-01 -8.2124978242e-02
   endloop
 endfacet
 facet normal  -7.5691531027e-02 0.0000000000e+00 -9.9713128129e-01
   outer loop
     vertex 3.7888706764e-01 0.0000000000e+00 -8.2124978242e-02
     vertex 2.7756624175e-01 0.0000000000e+00 -7.4433785939e-02
     vertex 3.7888706764e-01 2.0000000000e-01 -8.2124978242e-02
   endloop
 endfacet
 facet normal  -7.5691531027e-02 0.0000000000e+00 -9.9713128129e-01
   outer loop
     vertex 3.7888706764e-01 2.0000000000e-01 -8.2124978242e-02
     vertex 2.7756624175e-01 0.0000000000e+00 -7.4433785939e-02
     vertex 2.7756624175e-01 2.0000000000e-01 -7.4433785939e-02
   endloop
 endfacet
 facet normal  -1.1402814201e-01 0.0000000000e+00 -9.9347752004e-01
   outer loop
     vertex 2.7756624175e-01 0.0000000000e+00 -7.4433785939e-02
     vertex 1.9119582731e-01 0.0000000000e+00 -6.4520468642e-02
     vertex 2.7756624175e-01 2.0000000000e-01 -7.4433785939e-02
   endloop
 endfacet
 facet normal  -1.1402814201e-01 0.0000000000e+00 -9.9347752004e-01
   outer loop
     vertex 2.7756624175e-01 2.0000000000e-01 -7.4433785939e-02
     vertex 1.9119582731e-01 0.0000000000e+00 -6.4520468642e-02
     vertex 1.9119582731e-01 2.0000000000e-01 -6.4520468642e-02
   endloop
 endfacet
 facet normal  -1.6292065204e-01 0.0000000000e+00 -9.8663917474e-01
   outer loop
     vertex 1.9119582731e-01 0.0000000000e+00 -6.4520468642e-02
     vertex 1.2239046976e-01 0.0000000000e+00 -5.3158854384e-02
     vertex 1.9119582731e-01 2.0000000000e-01 -6.4520468642e-02
   endloop
 endfacet
 facet normal  -1.6292065204e-01 0.0000000000e+00 -9.8663917474e-01
   outer loop
     vertex 1.9119582731e-01 2.0000000000e-01 -6.4520468642e-02
     vertex 1.2239046976e-01 0.0000000000e+00 -5.3158854384e-02
     vertex 1.2239046976e-01 2.0000000000e-01 -5.3158854384e-02
   endloop
 endfacet
 facet normal  -2.2637161190e-01 0.0000000000e+00 -9.7404101214e-01
   outer loop
     vertex 1.2239046976e-01 0.0000000000e+00 -5.3158854384e-02
     vertex 7.0668103650e-02 0.0000000000e+00 -4.1138338571e-02
     vertex 1.2239046976e-01 2.0000000000e-01 -5.3158854384e-02
   endloop
 endfacet
 facet normal  -2.2637161190e-01 0.0000000000e+00 -9.7404101214e-01
   outer loop
     vertex 1.2239046976e-01 2.0000000000e-01 -5.3158854384e-02
     vertex 7.0668103650e-02 0.0000000000e+00 -4.1138338571e-02
     vertex 7.0668103650e-02 2.0000000000e-01 -4.1138338571e-02
   endloop
 endfacet
 facet normal  -3.1674619698e-01 0.0000000000e+00 -9.4851033031e-01
   outer loop
     vertex 7.0668103650e-02 0.0000000000e+00 -4.1138338571e-02
     vertex 3.3824497723e-02 0.0000000000e+00 -2.8834759277e-02
     vertex 7.0668103650e-02 2.0000000000e-01 -4.1138338571e-02
   endloop
 endfacet
 facet normal  -3.1674619698e-01 0.0000000000e+00 -9.4851033031e-01
   outer loop
     vertex 7.0668103650e-02 2.0000000000e-01 -4.1138338571e-02
     vertex 3.3824497723e-02 0.0000000000e+00 -2.8834759277e-02
     vertex 3.3824497723e-02 2.0000000000e-01 -2.8834759277e-02
   endloop
 endfacet
 facet normal  -4.7524008357e-01 0.0000000000e+00 -8.7985616038e-01
   outer loop
     vertex 3.3824497723e-02 0.0000000000e+00 -2.8834759277e-02
     vertex 9.5908890485e-03 0.0000000000e+00 -1.5745367249e-02
     vertex 3.3824497723e-02 2.0000000000e-01 -2.8834759277e-02
   endloop
 endfacet
 facet normal  -4.7524008357e-01 0.0000000000e+00 -8.7985616038e-01
   outer loop
     vertex 3.3824497723e-02 2.0000000000e-01 -2.8834759277e-02
     vertex 9.5908890485e-03 0.0000000000e+00 -1.5745367249e-02
     vertex 9.5908890485e-03 2.0000000000e-01 -1.5745367249e-02
   endloop
 endfacet
 facet normal  -8.5403584536e-01 0.0000000000e+00 -5.2021416248e-01
   outer loop
     vertex 9.5908890485e-03 0.0000000000e+00 -1.5745367249e-02
     vertex 0.0000000000e+00 0.0000000000e+00 0.0000000000e+00
     vertex 9.5908890485e-03 2.0000000000e-01 -1.5745367249e-02
   endloop
 endfacet
 facet normal  -8.5403584536e-01 0.0000000000e+00 -5.2021416248e-01
   outer loop
     vertex 9.5908890485e-03 2.0000000000e-01 -1.5745367249e-02
     vertex 0.0000000000e+00 0.0000000000e+00 0.0000000000e+00
     vertex 0.0000000000e+00 2.0000000000e-01 0.0000000000e+00
   endloop
 endfacet
 facet normal  -7.5072688055e-01 0.0000000000e+00 6.6061270864e-01
   outer loop
     vertex 0.0000000000e+00 0.0000000000e+00 0.0000000000e+00
     vertex 1.2179336223e-02 2.0000000000e-01 1.3840719335e-02
     vertex 0.0000000000e+00 2.0000000000e-01 0.0000000000e+00
   endloop
 endfacet
 facet normal  -7.5072688055e-01 0.0000000000e+00 6.6061270864e-01
   outer loop
     vertex 0.0000000000e+00 0.0000000000e+00 0.0000000000e+00
     vertex 1.2179336223e-02 0.0000000000e+00 1.3840719335e-02
     vertex 1.2179336223e-02 2.0000000000e-01 1.3840719335e-02
   endloop
 endfacet
 facet normal  -3.1523469999e-01 0.0000000000e+00 9.4901374275e-01
   outer loop
     vertex 1.2179336223e-02 0.0000000000e+00 1.3840719335e-02
     vertex 3.8317731001e-02 2.0000000000e-01 2.2523132102e-02
     vertex 1.2179336223e-02 2.0000000000e-01 1.3840719335e-02
   endloop
 endfacet
 facet normal  -3.1523469999e-01 0.0000000000e+00 9.4901374275e-01
   outer loop
     vertex 1.2179336223e-02 0.0000000000e+00 1.3840719335e-02
     vertex 3.8317731001e-02 0.0000000000e+00 2.2523132102e-02
     vertex 3.8317731001e-02 2.0000000000e-01 2.2523132102e-02
   endloop
 endfacet
 facet normal  -1.4722702016e-01 0.0000000000e+00 9.8910272699e-01
   outer loop
     vertex 3.8317731001e-02 0.0000000000e+00 2.2523132102e-02
     vertex 7.6738093891e-02 2.0000000000e-01 2.8241967353e-02
     vertex 3.8317731001e-02 2.0000000000e-01 2.2523132102e-02
   endloop
 endfacet
 facet normal  -1.4722702016e-01 0.0000000000e+00 9.8910272699e-01
   outer loop
     vertex 3.8317731001e-02 0.0000000000e+00 2.2523132102e-02
     vertex 7.6738093891e-02 0.0000000000e+00 2.8241967353e-02
     vertex 7.6738093891e-02 2.0000000000e-01 2.8241967353e-02
   endloop
 endfacet
 facet normal  -5.3792071734e-02 0.0000000000e+00 9.9855215839e-01
   outer loop
     vertex 7.6738093891e-02 0.0000000000e+00 2.8241967353e-02
     vertex 1.2976202171e-01 2.0000000000e-01 3.1098369900e-02
     vertex 7.6738093891e-02 2.0000000000e-01 2.8241967353e-02
   endloop
 endfacet
 facet normal  -5.3792071734e-02 0.0000000000e+00 9.9855215839e-01
   outer loop
     vertex 7.6738093891e-02 0.0000000000e+00 2.8241967353e-02
     vertex 1.2976202171e-01 0.0000000000e+00 3.1098369900e-02
     vertex 1.2976202171e-01 2.0000000000e-01 3.1098369900e-02
   endloop
 endfacet
 facet normal  1.0882573454e-02 0.0000000000e+00 9.9994078304e-01
   outer loop
     vertex 1.2976202171e-01 0.0000000000e+00 3.1098369900e-02
     vertex 1.9949499488e-01 2.0000000000e-01 3.0339450757e-02
     vertex 1.2976202171e-01 2.0000000000e-01 3.1098369900e-02
   endloop
 endfacet
 facet normal  1.0882573454e-02 -0.0000000000e+00 9.9994078304e-01
   outer loop
     vertex 1.2976202171e-01 0.0000000000e+00 3.1098369900e-02
     vertex 1.9949499488e-01 0.0000000000e+00 3.0339450757e-02
     vertex 1.9949499488e-01 2.0000000000e-01 3.0339450757e-02
   endloop
 endfacet
 facet normal  6.0219762596e-02 0.0000000000e+00 9.9818514324e-01
   outer loop
     vertex 1.9949499488e-01 0.0000000000e+00 3.0339450757e-02
     vertex 2.8627467813e-01 2.0000000000e-01 2.5104097417e-02
     vertex 1.9949499488e-01 2.0000000000e-01 3.0339450757e-02
   endloop
 endfacet
 facet normal  6.0219762596e-02 -0.0000000000e+00 9.9818514324e-01
   outer loop
     vertex 1.9949499488e-01 0.0000000000e+00 3.0339450757e-02
     vertex 2.8627467813e-01 0.0000000000e+00 2.5104097417e-02
     vertex 2.8627467813e-01 2.0000000000e-01 2.5104097417e-02
   endloop
 endfacet
 facet normal  9.8608423299e-02 0.0000000000e+00 9.9512631301e-01
   outer loop
     vertex 2.8627467813e-01 0.0000000000e+00 2.5104097417e-02
     vertex 3.8739177454e-01 2.0000000000e-01 1.5084266452e-02
     vertex 2.8627467813e-01 2.0000000000e-01 2.5104097417e-02
   endloop
 endfacet
 facet normal  9.8608423299e-02 -0.0000000000e+00 9.9512631301e-01
   outer loop
     vertex 2.8627467813e-01 0.0000000000e+00 2.5104097417e-02
     vertex 3.8739177454e-01 0.0000000000e+00 1.5084266452e-02
     vertex 3.8739177454e-01 2.0000000000e-01 1.5084266452e-02
   endloop
 endfacet
 facet normal  1.2777567133e-01 0.0000000000e+00 9.9180309428e-01
   outer loop
     vertex 3.8739177454e-01 0.0000000000e+00 1.5084266452e-02
     vertex 4.9667749129e-01 2.0000000000e-01 1.0048025890e-03
     vertex 3.8739177454e-01 2.0000000000e-01 1.5084266452e-02
   endloop
 endfacet
 facet normal  1.2777567133e-01 -0.0000000000e+00 9.9180309428e-01
   outer loop
     vertex 3.8739177454e-01 0.0000000000e+00 1.5084266452e-02
     vertex 4.9667749129e-01 0.0000000000e+00 1.0048025890e-03
     vertex 4.9667749129e-01 2.0000000000e-01 1.0048025890e-03
   endloop
 endfacet
 facet normal  1.4904162000e-01 0.0000000000e+00 9.8883092362e-01
   outer loop
     vertex 4.9667749129e-01 0.0000000000e+00 1.0048025890e-03
     vertex 6.0563695690e-01 0.0000000000e+00 -1.5418121574e-02
     vertex 4.9667749129e-01 2.0000000000e-01 1.0048025890e-03
   endloop
 endfacet
 facet normal  1.4904162000e-01 -0.0000000000e+00 9.8883092362e-01
   outer loop
     vertex 4.9667749129e-01 2.0000000000e-01 1.0048025890e-03
     vertex 6.0563695690e-01 0.0000000000e+00 -1.5418121574e-02
     vertex 6.0563695690e-01 2.0000000000e-01 -1.5418121574e-02
   endloop
 endfacet
 facet normal  1.6423391514e-01 0.0000000000e+00 9.8642142166e-01
   outer loop
     vertex 6.0563695690e-01 0.0000000000e+00 -1.5418121574e-02
     vertex 7.0587340465e-01 0.0000000000e+00 -3.2106956480e-02
     vertex 6.0563695690e-01 2.0000000000e-01 -1.5418121574e-02
   endloop
 endfacet
 facet normal  1.6423391514e-01 -0.0000000000e+00 9.8642142166e-01
   outer loop
     vertex 6.0563695690e-01 2.0000000000e-01 -1.5418121574e-02
     vertex 7.0587340465e-01 0.0000000000e+00 -3.2106956480e-02
     vertex 7.0587340465e-01 2.0000000000e-01 -3.2106956480e-02
   endloop
 endfacet
 facet normal  1.7526955341e-01 0.0000000000e+00 9.8452048412e-01
   outer loop
     vertex 7.0587340465e-01 0.0000000000e+00 -3.2106956480e-02
     vertex 7.9147117323e-01 0.0000000000e+00 -4.7345524812e-02
     vertex 7.0587340465e-01 2.0000000000e-01 -3.2106956480e-02
   endloop
 endfacet
 facet normal  1.7526955341e-01 -0.0000000000e+00 9.8452048412e-01
   outer loop
     vertex 7.0587340465e-01 2.0000000000e-01 -3.2106956480e-02
     vertex 7.9147117323e-01 0.0000000000e+00 -4.7345524812e-02
     vertex 7.9147117323e-01 2.0000000000e-01 -4.7345524812e-02
   endloop
 endfacet
 facet normal  1.8356639644e-01 0.0000000000e+00 9.8300731335e-01
   outer loop
     vertex 7.9147117323e-01 0.0000000000e+00 -4.7345524812e-02
     vertex 8.6003174581e-01 0.0000000000e+00 -6.0148498988e-02
     vertex 7.9147117323e-01 2.0000000000e-01 -4.7345524812e-02
   endloop
 endfacet
 facet normal  1.8356639644e-01 -0.0000000000e+00 9.8300731335e-01
   outer loop
     vertex 7.9147117323e-01 2.0000000000e-01 -4.7345524812e-02
     vertex 8.6003174581e-01 0.0000000000e+00 -6.0148498988e-02
     vertex 8.6003174581e-01 2.0000000000e-01 -6.0148498988e-02
   endloop
 endfacet
 facet normal  1.8992599544e-01 0.0000000000e+00 9.8179840917e-01
   outer loop
     vertex 8.6003174581e-01 0.0000000000e+00 -6.0148498988e-02
     vertex 9.1217796307e-01 0.0000000000e+00 -7.0236030327e-02
     vertex 8.6003174581e-01 2.0000000000e-01 -6.0148498988e-02
   endloop
 endfacet
 facet normal  1.8992599544e-01 -0.0000000000e+00 9.8179840917e-01
   outer loop
     vertex 8.6003174581e-01 2.0000000000e-01 -6.0148498988e-02
     vertex 9.1217796307e-01 0.0000000000e+00 -7.0236030327e-02
     vertex 9.1217796307e-01 2.0000000000e-01 -7.0236030327e-02
   endloop
 endfacet
 facet normal  1.9481604400e-01 0.0000000000e+00 9.8083979783e-01
   outer loop
     vertex 9.1217796307e-01 0.0000000000e+00 -7.0236030327e-02
     vertex 9.5029916912e-01 0.0000000000e+00 -7.7807728143e-02
     vertex 9.1217796307e-01 2.0000000000e-01 -7.0236030327e-02
   endloop
 endfacet
 facet normal  1.9481604400e-01 -0.0000000000e+00 9.8083979783e-01
   outer loop
     vertex 9.1217796307e-01 2.0000000000e-01 -7.0236030327e-02
     vertex 9.5029916912e-01 0.0000000000e+00 -7.7807728143e-02
     vertex 9.5029916912e-01 2.0000000000e-01 -7.7807728143e-02
   endloop
 endfacet
 facet normal  1.9849087632e-01 0.0000000000e+00 9.8010273544e-01
   outer loop
     vertex 9.5029916912e-01 0.0000000000e+00 -7.7807728143e-02
     vertex 9.7736808718e-01 0.0000000000e+00 -8.3289738419e-02
     vertex 9.5029916912e-01 2.0000000000e-01 -7.7807728143e-02
   endloop
 endfacet
 facet normal  1.9849087632e-01 -0.0000000000e+00 9.8010273544e-01
   outer loop
     vertex 9.5029916912e-01 2.0000000000e-01 -7.7807728143e-02
     vertex 9.7736808718e-01 0.0000000000e+00 -8.3289738419e-02
     vertex 9.7736808718e-01 2.0000000000e-01 -8.3289738419e-02
   endloop
 endfacet
 facet normal  2.0115061973e-01 0.0000000000e+00 9.7956032391e-01
   outer loop
     vertex 9.7736808718e-01 0.0000000000e+00 -8.3289738419e-02
     vertex 9.9619469809e-01 0.0000000000e+00 -8.7155742748e-02
     vertex 9.7736808718e-01 2.0000000000e-01 -8.3289738419e-02
   endloop
 endfacet
 facet normal  2.0115061973e-01 -0.0000000000e+00 9.7956032391e-01
   outer loop
     vertex 9.7736808718e-01 2.0000000000e-01 -8.3289738419e-02
     vertex 9.9619469809e-01 0.0000000000e+00 -8.7155742748e-02
     vertex 9.9619469809e-01 2.0000000000e-01 -8.7155742748e-02
   endloop
 endfacet
 facet normal  0.0000000000e+00 1.0000000000e+00 0.0000000000e+00
   outer loop
     vertex 9.9619469809e-01 2.0000000000e-01 -8.7155742748e-02
     vertex 9.7698278110e-01 2.0000000000e-01 -8.7693807107e-02
     vertex 9.7707910762e-01 2.0000000000e-01 -8.6592789935e-02
   endloop
 endfacet
 facet normal  0.0000000000e+00 1.0000000000e+00 0.0000000000e+00
   outer loop
     vertex 9.7698278110e-01 2.0000000000e-01 -8.7693807107e-02
     vertex 9.4960466200e-01 2.0000000000e-01 -8.5745980813e-02
     vertex 9.7707910762e-01 2.0000000000e-01 -8.6592789935e-02
   endloop
 endfacet
 facet normal  0.0000000000e+00 1.0000000000e+00 0.0000000000e+00
   outer loop
     vertex 9.7698278110e-01 2.0000000000e-01 -8.7693807107e-02
     vertex 9.4937315963e-01 2.0000000000e-01 -8.8392065036e-02
     vertex 9.4960466200e-01 2.0000000000e-01 -8.5745980813e-02
   endloop
 endfacet
 facet normal  0.0000000000e+00 1.0000000000e+00 0.0000000000e+00
   outer loop
     vertex 9.4937315963e-01 2.0000000000e-01 -8.8392065036e-02
     vertex 9.1093170739e-01 2.0000000000e-01 -8.4480797923e-02
     vertex 9.4960466200e-01 2.0000000000e-01 -8.5745980813e-02
   endloop
 endfacet
 facet normal  0.0000000000e+00 1.0000000000e+00 0.0000000000e+00
   outer loop
     vertex 9.4937315963e-01 2.0000000000e-01 -8.8392065036e-02
     vertex 9.1051628883e-01 2.0000000000e-01 -8.9229053788e-02
     vertex 9.1093170739e-01 2.0000000000e-01 -8.4480797923e-02
   endloop
 endfacet
 facet normal  0.0000000000e+00 1.0000000000e+00 0.0000000000e+00
   outer loop
     vertex 9.1051628883e-01 2.0000000000e-01 -8.9229053788e-02
     vertex 8.5806589271e-01 2.0000000000e-01 -8.2618302692e-02
     vertex 9.1093170739e-01 2.0000000000e-01 -8.4480797923e-02
   endloop
 endfacet
 facet normal  0.0000000000e+00 1.0000000000e+00 0.0000000000e+00
   outer loop
     vertex 9.1051628883e-01 2.0000000000e-01 -8.9229053788e-02
     vertex 8.5741060835e-01 2.0000000000e-01 -9.0108237260e-02
     vertex 8.5806589271e-01 2.0000000000e-01 -8.2618302692e-02
   endloop
 endfacet
 facet normal  0.0000000000e+00 1.0000000000e+00 0.0000000000e+00
   outer loop
     vertex 8.5741060835e-01 2.0000000000e-01 -9.0108237260e-02
     vertex 7.8861910215e-01 2.0000000000e-01 -7.9944846454e-02
     vertex 8.5806589271e-01 2.0000000000e-01 -8.2618302692e-02
   endloop
 endfacet
 facet normal  0.0000000000e+00 1.0000000000e+00 0.0000000000e+00
   outer loop
     vertex 8.5741060835e-01 2.0000000000e-01 -9.0108237260e-02
     vertex 7.8766841178e-01 2.0000000000e-01 -9.0811287001e-02
     vertex 7.8861910215e-01 2.0000000000e-01 -7.9944846454e-02
   endloop
 endfacet
 facet normal  0.0000000000e+00 1.0000000000e+00 0.0000000000e+00
   outer loop
     vertex 7.8766841178e-01 2.0000000000e-01 -9.0811287001e-02
     vertex 7.0201203818e-01 2.0000000000e-01 -7.6242577155e-02
     vertex 7.8861910215e-01 2.0000000000e-01 -7.9944846454e-02
   endloop
 endfacet
 facet normal  0.0000000000e+00 1.0000000000e+00 0.0000000000e+00
   outer loop
     vertex 7.8766841178e-01 2.0000000000e-01 -9.0811287001e-02
     vertex 7.0072491603e-01 2.0000000000e-01 -9.0954450714e-02
     vertex 7.0201203818e-01 2.0000000000e-01 -7.6242577155e-02
   endloop
 endfacet
 facet normal  0.0000000000e+00 1.0000000000e+00 0.0000000000e+00
   outer loop
     vertex 7.0072491603e-01 2.0000000000e-01 -9.0954450714e-02
     vertex 6.0074421376e-01 2.0000000000e-01 -7.1342431566e-02
     vertex 7.0201203818e-01 2.0000000000e-01 -7.6242577155e-02
   endloop
 endfacet
 facet normal  -0.0000000000e+00 1.0000000000e+00 0.0000000000e+00
   outer loop
     vertex 7.0072491603e-01 2.0000000000e-01 -9.0954450714e-02
     vertex 5.9911329938e-01 2.0000000000e-01 -8.9983868230e-02
     vertex 6.0074421376e-01 2.0000000000e-01 -7.1342431566e-02
   endloop
 endfacet
 facet normal  0.0000000000e+00 1.0000000000e+00 0.0000000000e+00
   outer loop
     vertex 5.9911329938e-01 2.0000000000e-01 -8.9983868230e-02
     vertex 4.9088739435e-01 2.0000000000e-01 -6.5176308326e-02
     vertex 6.0074421376e-01 2.0000000000e-01 -7.1342431566e-02
   endloop
 endfacet
 facet normal  -0.0000000000e+00 1.0000000000e+00 0.0000000000e+00
   outer loop
     vertex 5.9911329938e-01 2.0000000000e-01 -8.9983868230e-02
     vertex 4.8895736203e-01 2.0000000000e-01 -8.7236678631e-02
     vertex 4.9088739435e-01 2.0000000000e-01 -6.5176308326e-02
   endloop
 endfacet
 facet normal  -0.0000000000e+00 1.0000000000e+00 0.0000000000e+00
   outer loop
     vertex 4.8895736203e-01 2.0000000000e-01 -8.7236678631e-02
     vertex 3.7888706764e-01 2.0000000000e-01 -8.2124978242e-02
     vertex 4.9088739435e-01 2.0000000000e-01 -6.5176308326e-02
   endloop
 endfacet
 facet normal  0.0000000000e+00 1.0000000000e+00 0.0000000000e+00
   outer loop
     vertex 4.9088739435e-01 2.0000000000e-01 -6.5176308326e-02
     vertex 3.7888706764e-01 2.0000000000e-01 -8.2124978242e-02
     vertex 3.8101324436e-01 2.0000000000e-01 -5.7822667069e-02
   endloop
 endfacet
 facet normal  -0.0000000000e+00 1.0000000000e+00 0.0000000000e+00
   outer loop
     vertex 3.7888706764e-01 2.0000000000e-01 -8.2124978242e-02
     vertex 2.7756624175e-01 2.0000000000e-01 -7.4433785939e-02
     vertex 3.8101324436e-01 2.0000000000e-01 -5.7822667069e-02
   endloop
 endfacet
 facet normal  0.0000000000e+00 1.0000000000e+00 0.0000000000e+00
   outer loop
     vertex 3.8101324436e-01 2.0000000000e-01 -5.7822667069e-02
     vertex 2.7756624175e-01 2.0000000000e-01 -7.4433785939e-02
     vertex 2.7974335084e-01 2.0000000000e-01 -4.9549315100e-02
   endloop
 endfacet
 facet normal  -0.0000000000e+00 1.0000000000e+00 0.0000000000e+00
   outer loop
     vertex 2.7756624175e-01 2.0000000000e-01 -7.4433785939e-02
     vertex 1.9119582731e-01 2.0000000000e-01 -6.4520468642e-02
     vertex 2.7974335084e-01 2.0000000000e-01 -4.9549315100e-02
   endloop
 endfacet
 facet normal  0.0000000000e+00 1.0000000000e+00 0.0000000000e+00
   outer loop
     vertex 2.7974335084e-01 2.0000000000e-01 -4.9549315100e-02
     vertex 1.9119582731e-01 2.0000000000e-01 -6.4520468642e-02
     vertex 1.9327061920e-01 2.0000000000e-01 -4.0805488792e-02
   endloop
 endfacet
 facet normal  -0.0000000000e+00 1.0000000000e+00 0.0000000000e+00
   outer loop
     vertex 1.9119582731e-01 2.0000000000e-01 -6.4520468642e-02
     vertex 1.2239046976e-01 2.0000000000e-01 -5.3158854384e-02
     vertex 1.9327061920e-01 2.0000000000e-01 -4.0805488792e-02
   endloop
 endfacet
 facet normal  0.0000000000e+00 1.0000000000e+00 0.0000000000e+00
   outer loop
     vertex 1.9327061920e-01 2.0000000000e-01 -4.0805488792e-02
     vertex 1.2239046976e-01 2.0000000000e-01 -5.3158854384e-02
     vertex 1.2423335775e-01 2.0000000000e-01 -3.2094548313e-02
   endloop
 endfacet
 facet normal  -0.0000000000e+00 1.0000000000e+00 0.0000000000e+00
   outer loop
     vertex 1.2239046976e-01 2.0000000000e-01 -5.3158854384e-02
     vertex 7.0668103650e-02 2.0000000000e-01 -4.1138338571e-02
     vertex 1.2423335775e-01 2.0000000000e-01 -3.2094548313e-02
   endloop
 endfacet
 facet normal  0.0000000000e+00 1.0000000000e+00 0.0000000000e+00
   outer loop
     vertex 1.2423335775e-01 2.0000000000e-01 -3.2094548313e-02
     vertex 7.0668103650e-02 2.0000000000e-01 -4.1138338571e-02
     vertex 7.2185601211e-02 2.0000000000e-01 -2.3793262090e-02
   endloop
 endfacet
 facet normal  -1.4639005234e-15 1.0000000000e+00 1.2807470033e-16
   outer loop
     vertex 7.0668103650e-02 2.0000000000e-01 -4.1138338571e-02
     vertex 3.3824497723e-02 2.0000000000e-01 -2.8834759277e-02
     vertex 7.2185601211e-02 2.0000000000e-01 -2.3793262090e-02
   endloop
 endfacet
 facet normal  -1.4639005234e-15 1.0000000000e+00 1.2807470033e-16
   outer loop
     vertex 7.2185601211e-02 2.0000000000e-01 -2.3793262090e-02
     vertex 3.3824497723e-02 2.0000000000e-01 -2.8834759277e-02
     vertex 3.4947806043e-02 2.0000000000e-01 -1.5995286432e-02
   endloop
 endfacet
 facet normal  2.1873055624e-15 1.0000000000e+00 -1.9136444038e-16
   outer loop
     vertex 3.3824497723e-02 2.0000000000e-01 -2.8834759277e-02
     vertex 9.5908890485e-03 2.0000000000e-01 -1.5745367249e-02
     vertex 3.4947806043e-02 2.0000000000e-01 -1.5995286432e-02
   endloop
 endfacet
 facet normal  2.1873055624e-15 1.0000000000e+00 -1.9136444038e-16
   outer loop
     vertex 3.4947806043e-02 2.0000000000e-01 -1.5995286432e-02
     vertex 9.5908890485e-03 2.0000000000e-01 -1.5745367249e-02
     vertex 1.0238000842e-02 2.0000000000e-01 -8.3488456028e-03
   endloop
 endfacet
 facet normal  0.0000000000e+00 1.0000000000e+00 0.0000000000e+00
   outer loop
     vertex 9.5908890485e-03 2.0000000000e-01 -1.5745367249e-02
     vertex 0.0000000000e+00 2.0000000000e-01 0.0000000000e+00
     vertex 1.0238000842e-02 2.0000000000e-01 -8.3488456028e-03
   endloop
 endfacet
 facet normal  0.0000000000e+00 1.0000000000e+00 0.0000000000e+00
   outer loop
     vertex 0.0000000000e+00 2.0000000000e-01 0.0000000000e+00
     vertex 1.2179336223e-02 2.0000000000e-01 1.3840719335e-02
     vertex 1.1532224429e-02 2.0000000000e-01 6.4441976892e-03
   endloop
 endfacet
 facet normal  0.0000000000e+00 1.0000000000e+00 0.0000000000e+00
   outer loop
     vertex 1.2179336223e-02 2.0000000000e-01 1.3840719335e-02
     vertex 3.7194422682e-02 2.0000000000e-01 9.6836592575e-03
     vertex 1.1532224429e-02 2.0000000000e-01 6.4441976892e-03
   endloop
 endfacet
 facet normal  0.0000000000e+00 1.0000000000e+00 0.0000000000e+00
   outer loop
     vertex 1.2179336223e-02 2.0000000000e-01 1.3840719335e-02
     vertex 3.8317731001e-02 2.0000000000e-01 2.2523132102e-02
     vertex 3.7194422682e-02 2.0000000000e-01 9.6836592575e-03
   endloop
 endfacet
 facet normal  0.0000000000e+00 1.0000000000e+00 0.0000000000e+00
   outer loop
     vertex 3.8317731001e-02 2.0000000000e-01 2.2523132102e-02
     vertex 7.5220596331e-02 2.0000000000e-01 1.0896890872e-02
     vertex 3.7194422682e-02 2.0000000000e-01 9.6836592575e-03
   endloop
 endfacet
 facet normal  0.0000000000e+00 1.0000000000e+00 0.0000000000e+00
   outer loop
     vertex 3.8317731001e-02 2.0000000000e-01 2.2523132102e-02
     vertex 7.6738093891e-02 2.0000000000e-01 2.8241967353e-02
     vertex 7.5220596331e-02 2.0000000000e-01 1.0896890872e-02
   endloop
 endfacet
 facet normal  0.0000000000e+00 1.0000000000e+00 0.0000000000e+00
   outer loop
     vertex 7.6738093891e-02 2.0000000000e-01 2.8241967353e-02
     vertex 1.2791913372e-01 2.0000000000e-01 1.0034063829e-02
     vertex 7.5220596331e-02 2.0000000000e-01 1.0896890872e-02
   endloop
 endfacet
 facet normal  0.0000000000e+00 1.0000000000e+00 0.0000000000e+00
   outer loop
     vertex 7.6738093891e-02 2.0000000000e-01 2.8241967353e-02
     vertex 1.2976202171e-01 2.0000000000e-01 3.1098369900e-02
     vertex 1.2791913372e-01 2.0000000000e-01 1.0034063829e-02
   endloop
 endfacet
 facet normal  0.0000000000e+00 1.0000000000e+00 0.0000000000e+00
   outer loop
     vertex 1.2976202171e-01 2.0000000000e-01 3.1098369900e-02
     vertex 1.9742020299e-01 2.0000000000e-01 6.6244709072e-03
     vertex 1.2791913372e-01 2.0000000000e-01 1.0034063829e-02
   endloop
 endfacet
 facet normal  0.0000000000e+00 1.0000000000e+00 0.0000000000e+00
   outer loop
     vertex 1.2976202171e-01 2.0000000000e-01 3.1098369900e-02
     vertex 1.9949499488e-01 2.0000000000e-01 3.0339450757e-02
     vertex 1.9742020299e-01 2.0000000000e-01 6.6244709072e-03
   endloop
 endfacet
 facet normal  0.0000000000e+00 1.0000000000e+00 0.0000000000e+00
   outer loop
     vertex 1.9949499488e-01 2.0000000000e-01 3.0339450757e-02
     vertex 2.8409756904e-01 2.0000000000e-01 2.1962657803e-04
     vertex 1.9742020299e-01 2.0000000000e-01 6.6244709072e-03
   endloop
 endfacet
 facet normal  0.0000000000e+00 1.0000000000e+00 0.0000000000e+00
   outer loop
     vertex 1.9949499488e-01 2.0000000000e-01 3.0339450757e-02
     vertex 2.8627467813e-01 2.0000000000e-01 2.5104097417e-02
     vertex 2.8409756904e-01 2.0000000000e-01 2.1962657803e-04
   endloop
 endfacet
 facet normal  0.0000000000e+00 1.0000000000e+00 0.0000000000e+00
   outer loop
     vertex 2.8627467813e-01 2.0000000000e-01 2.5104097417e-02
     vertex 3.8526559782e-01 2.0000000000e-01 -9.2180447217e-03
     vertex 2.8409756904e-01 2.0000000000e-01 2.1962657803e-04
   endloop
 endfacet
 facet normal  0.0000000000e+00 1.0000000000e+00 0.0000000000e+00
   outer loop
     vertex 2.8627467813e-01 2.0000000000e-01 2.5104097417e-02
     vertex 3.8739177454e-01 2.0000000000e-01 1.5084266452e-02
     vertex 3.8526559782e-01 2.0000000000e-01 -9.2180447217e-03
   endloop
 endfacet
 facet normal  0.0000000000e+00 1.0000000000e+00 0.0000000000e+00
   outer loop
     vertex 3.8739177454e-01 2.0000000000e-01 1.5084266452e-02
     vertex 4.9474745898e-01 2.0000000000e-01 -2.1055567716e-02
     vertex 3.8526559782e-01 2.0000000000e-01 -9.2180447217e-03
   endloop
 endfacet
 facet normal  0.0000000000e+00 1.0000000000e+00 0.0000000000e+00
   outer loop
     vertex 3.8739177454e-01 2.0000000000e-01 1.5084266452e-02
     vertex 4.9667749129e-01 2.0000000000e-01 1.0048025890e-03
     vertex 4.9474745898e-01 2.0000000000e-01 -2.1055567716e-02
   endloop
 endfacet
 facet normal  0.0000000000e+00 1.0000000000e+00 0.0000000000e+00
   outer loop
     vertex 4.9667749129e-01 2.0000000000e-01 1.0048025890e-03
     vertex 6.0563695690e-01 2.0000000000e-01 -1.5418121574e-02
     vertex 4.9474745898e-01 2.0000000000e-01 -2.1055567716e-02
   endloop
 endfacet
 facet normal  0.0000000000e+00 1.0000000000e+00 0.0000000000e+00
   outer loop
     vertex 4.9474745898e-01 2.0000000000e-01 -2.1055567716e-02
     vertex 6.0563695690e-01 2.0000000000e-01 -1.5418121574e-02
     vertex 6.0400604252e-01 2.0000000000e-01 -3.4059558238e-02
   endloop
 endfacet
 facet normal  0.0000000000e+00 1.0000000000e+00 0.0000000000e+00
   outer loop
     vertex 6.0563695690e-01 2.0000000000e-01 -1.5418121574e-02
     vertex 7.0587340465e-01 2.0000000000e-01 -3.2106956480e-02
     vertex 6.0400604252e-01 2.0000000000e-01 -3.4059558238e-02
   endloop
 endfacet
 facet normal  0.0000000000e+00 1.0000000000e+00 0.0000000000e+00
   outer loop
     vertex 6.0400604252e-01 2.0000000000e-01 -3.4059558238e-02
     vertex 7.0587340465e-01 2.0000000000e-01 -3.2106956480e-02
     vertex 7.0458628250e-01 2.0000000000e-01 -4.6818830039e-02
   endloop
 endfacet
 facet normal  0.0000000000e+00 1.0000000000e+00 0.0000000000e+00
   outer loop
     vertex 7.0587340465e-01 2.0000000000e-01 -3.2106956480e-02
     vertex 7.9147117323e-01 2.0000000000e-01 -4.7345524812e-02
     vertex 7.0458628250e-01 2.0000000000e-01 -4.6818830039e-02
   endloop
 endfacet
 facet normal  0.0000000000e+00 1.0000000000e+00 0.0000000000e+00
   outer loop
     vertex 7.0458628250e-01 2.0000000000e-01 -4.6818830039e-02
     vertex 7.9147117323e-01 2.0000000000e-01 -4.7345524812e-02
     vertex 7.9052048287e-01 2.0000000000e-01 -5.8211965360e-02
   endloop
 endfacet
 facet normal  0.0000000000e+00 1.0000000000e+00 0.0000000000e+00
   outer loop
     vertex 7.9147117323e-01 2.0000000000e-01 -4.7345524812e-02
     vertex 8.6003174581e-01 2.0000000000e-01 -6.0148498988e-02
     vertex 7.9052048287e-01 2.0000000000e-01 -5.8211965360e-02
   endloop
 endfacet
 facet normal  0.0000000000e+00 1.0000000000e+00 0.0000000000e+00
   outer loop
     vertex 7.9052048287e-01 2.0000000000e-01 -5.8211965360e-02
     vertex 8.6003174581e-01 2.0000000000e-01 -6.0148498988e-02
     vertex 8.5937646145e-01 2.0000000000e-01 -6.7638433556e-02
   endloop
 endfacet
 facet normal  0.0000000000e+00 1.0000000000e+00 0.0000000000e+00
   outer loop
     vertex 8.6003174581e-01 2.0000000000e-01 -6.0148498988e-02
     vertex 9.1217796307e-01 2.0000000000e-01 -7.0236030327e-02
     vertex 8.5937646145e-01 2.0000000000e-01 -6.7638433556e-02
   endloop
 endfacet
 facet normal  0.0000000000e+00 1.0000000000e+00 0.0000000000e+00
   outer loop
     vertex 8.5937646145e-01 2.0000000000e-01 -6.7638433556e-02
     vertex 9.1217796307e-01 2.0000000000e-01 -7.0236030327e-02
     vertex 9.1176254451e-01 2.0000000000e-01 -7.4984286192e-02
   endloop
 endfacet
 facet normal  0.0000000000e+00 1.0000000000e+00 0.0000000000e+00
   outer loop
     vertex 9.1217796307e-01 2.0000000000e-01 -7.0236030327e-02
     vertex 9.5029916912e-01 2.0000000000e-01 -7.7807728143e-02
     vertex 9.1176254451e-01 2.0000000000e-01 -7.4984286192e-02
   endloop
 endfacet
 facet normal  0.0000000000e+00 1.0000000000e+00 0.0000000000e+00
   outer loop
     vertex 9.1176254451e-01 2.0000000000e-01 -7.4984286192e-02
     vertex 9.5029916912e-01 2.0000000000e-01 -7.7807728143e-02
     vertex 9.5006766674e-01 2.0000000000e-01 -8.0453812366e-02
   endloop
 endfacet
 facet normal  0.0000000000e+00 1.0000000000e+00 0.0000000000e+00
   outer loop
     vertex 9.5029916912e-01 2.0000000000e-01 -7.7807728143e-02
     vertex 9.7736808718e-01 2.0000000000e-01 -8.3289738419e-02
     vertex 9.5006766674e-01 2.0000000000e-01 -8.0453812366e-02
   endloop
 endfacet
 facet normal  0.0000000000e+00 1.0000000000e+00 0.0000000000e+00
   outer loop
     vertex 9.5006766674e-01 2.0000000000e-01 -8.0453812366e-02
     vertex 9.7736808718e-01 2.0000000000e-01 -8.3289738419e-02
     vertex 9.7727176066e-01 2.0000000000e-01 -8.4390755591e-02
   endloop
 endfacet
 facet normal  0.0000000000e+00 1.0000000000e+00 0.0000000000e+00
   outer loop
     vertex 9.7736808718e-01 2.0000000000e-01 -8.3289738419e-02
     vertex 9.9619469809e-01 2.0000000000e-01 -8.7155742748e-02
     vertex 9.7727176066e-01 2.0000000000e-01 -8.4390755591e-02
   endloop
 endfacet
 facet normal  -0.0000000000e+00 1.0000000000e+00 0.0000000000e+00
   outer loop
     vertex 9.9619469809e-01 2.0000000000e-01 -8.7155742748e-02
     vertex 9.7707910762e-01 2.0000000000e-01 -8.6592789935e-02
     vertex 9.7717543414e-01 2.0000000000e-01 -8.5491772763e-02
   endloop
 endfacet
 facet normal  0.0000000000e+00 1.0000000000e+00 0.0000000000e+00
   outer loop
     vertex 9.7707910762e-01 2.0000000000e-01 -8.6592789935e-02
     vertex 9.4983616437e-01 2.0000000000e-01 -8.3099896589e-02
     vertex 9.7717543414e-01 2.0000000000e-01 -8.5491772763e-02
   endloop
 endfacet
 facet normal  -0.0000000000e+00 1.0000000000e+00 0.0000000000e+00
   outer loop
     vertex 9.7707910762e-01 2.0000000000e-01 -8.6592789935e-02
     vertex 9.4960466200e-01 2.0000000000e-01 -8.5745980813e-02
     vertex 9.4983616437e-01 2.0000000000e-01 -8.3099896589e-02
   endloop
 endfacet
 facet normal  0.0000000000e+00 1.0000000000e+00 0.0000000000e+00
   outer loop
     vertex 9.4960466200e-01 2.0000000000e-01 -8.5745980813e-02
     vertex 9.1134712595e-01 2.0000000000e-01 -7.9732542058e-02
     vertex 9.4983616437e-01 2.0000000000e-01 -8.3099896589e-02
   endloop
 endfacet
 facet normal  -0.0000000000e+00 1.0000000000e+00 0.0000000000e+00
   outer loop
     vertex 9.4960466200e-01 2.0000000000e-01 -8.5745980813e-02
     vertex 9.1093170739e-01 2.0000000000e-01 -8.4480797923e-02
     vertex 9.1134712595e-01 2.0000000000e-01 -7.9732542058e-02
   endloop
 endfacet
 facet normal  0.0000000000e+00 1.0000000000e+00 0.0000000000e+00
   outer loop
     vertex 9.1093170739e-01 2.0000000000e-01 -8.4480797923e-02
     vertex 8.5872117708e-01 2.0000000000e-01 -7.5128368124e-02
     vertex 9.1134712595e-01 2.0000000000e-01 -7.9732542058e-02
   endloop
 endfacet
 facet normal  -0.0000000000e+00 1.0000000000e+00 0.0000000000e+00
   outer loop
     vertex 9.1093170739e-01 2.0000000000e-01 -8.4480797923e-02
     vertex 8.5806589271e-01 2.0000000000e-01 -8.2618302692e-02
     vertex 8.5872117708e-01 2.0000000000e-01 -7.5128368124e-02
   endloop
 endfacet
 facet normal  0.0000000000e+00 1.0000000000e+00 0.0000000000e+00
   outer loop
     vertex 8.5806589271e-01 2.0000000000e-01 -8.2618302692e-02
     vertex 7.8956979251e-01 2.0000000000e-01 -6.9078405907e-02
     vertex 8.5872117708e-01 2.0000000000e-01 -7.5128368124e-02
   endloop
 endfacet
 facet normal  -0.0000000000e+00 1.0000000000e+00 0.0000000000e+00
   outer loop
     vertex 8.5806589271e-01 2.0000000000e-01 -8.2618302692e-02
     vertex 7.8861910215e-01 2.0000000000e-01 -7.9944846454e-02
     vertex 7.8956979251e-01 2.0000000000e-01 -6.9078405907e-02
   endloop
 endfacet
 facet normal  0.0000000000e+00 1.0000000000e+00 0.0000000000e+00
   outer loop
     vertex 7.8861910215e-01 2.0000000000e-01 -7.9944846454e-02
     vertex 7.0329916034e-01 2.0000000000e-01 -6.1530703597e-02
     vertex 7.8956979251e-01 2.0000000000e-01 -6.9078405907e-02
   endloop
 endfacet
 facet normal  -0.0000000000e+00 1.0000000000e+00 0.0000000000e+00
   outer loop
     vertex 7.8861910215e-01 2.0000000000e-01 -7.9944846454e-02
     vertex 7.0201203818e-01 2.0000000000e-01 -7.6242577155e-02
     vertex 7.0329916034e-01 2.0000000000e-01 -6.1530703597e-02
   endloop
 endfacet
 facet normal  0.0000000000e+00 1.0000000000e+00 0.0000000000e+00
   outer loop
     vertex 7.0201203818e-01 2.0000000000e-01 -7.6242577155e-02
     vertex 6.0237512814e-01 2.0000000000e-01 -5.2700994902e-02
     vertex 7.0329916034e-01 2.0000000000e-01 -6.1530703597e-02
   endloop
 endfacet
 facet normal  -0.0000000000e+00 1.0000000000e+00 0.0000000000e+00
   outer loop
     vertex 7.0201203818e-01 2.0000000000e-01 -7.6242577155e-02
     vertex 6.0074421376e-01 2.0000000000e-01 -7.1342431566e-02
     vertex 6.0237512814e-01 2.0000000000e-01 -5.2700994902e-02
   endloop
 endfacet
 facet normal  0.0000000000e+00 1.0000000000e+00 0.0000000000e+00
   outer loop
     vertex 6.0074421376e-01 2.0000000000e-01 -7.1342431566e-02
     vertex 4.9281742666e-01 2.0000000000e-01 -4.3115938021e-02
     vertex 6.0237512814e-01 2.0000000000e-01 -5.2700994902e-02
   endloop
 endfacet
 facet normal  -0.0000000000e+00 1.0000000000e+00 0.0000000000e+00
   outer loop
     vertex 6.0074421376e-01 2.0000000000e-01 -7.1342431566e-02
     vertex 4.9088739435e-01 2.0000000000e-01 -6.5176308326e-02
     vertex 4.9281742666e-01 2.0000000000e-01 -4.3115938021e-02
   endloop
 endfacet
 facet normal  -0.0000000000e+00 1.0000000000e+00 0.0000000000e+00
   outer loop
     vertex 4.9088739435e-01 2.0000000000e-01 -6.5176308326e-02
     vertex 3.8101324436e-01 2.0000000000e-01 -5.7822667069e-02
     vertex 4.9281742666e-01 2.0000000000e-01 -4.3115938021e-02
   endloop
 endfacet
 facet normal  0.0000000000e+00 1.0000000000e+00 0.0000000000e+00
   outer loop
     vertex 4.9281742666e-01 2.0000000000e-01 -4.3115938021e-02
     vertex 3.8101324436e-01 2.0000000000e-01 -5.7822667069e-02
     vertex 3.8313942109e-01 2.0000000000e-01 -3.3520355895e-02
   endloop
 endfacet
 facet normal  -0.0000000000e+00 1.0000000000e+00 0.0000000000e+00
   outer loop
     vertex 3.8101324436e-01 2.0000000000e-01 -5.7822667069e-02
     vertex 2.7974335084e-01 2.0000000000e-01 -4.9549315100e-02
     vertex 3.8313942109e-01 2.0000000000e-01 -3.3520355895e-02
   endloop
 endfacet
 facet normal  0.0000000000e+00 1.0000000000e+00 0.0000000000e+00
   outer loop
     vertex 3.8313942109e-01 2.0000000000e-01 -3.3520355895e-02
     vertex 2.7974335084e-01 2.0000000000e-01 -4.9549315100e-02
     vertex 2.8192045994e-01 2.0000000000e-01 -2.4664844261e-02
   endloop
 endfacet
 facet normal  -0.0000000000e+00 1.0000000000e+00 0.0000000000e+00
   outer loop
     vertex 2.7974335084e-01 2.0000000000e-01 -4.9549315100e-02
     vertex 1.9327061920e-01 2.0000000000e-01 -4.0805488792e-02
     vertex 2.8192045994e-01 2.0000000000e-01 -2.4664844261e-02
   endloop
 endfacet
 facet normal  0.0000000000e+00 1.0000000000e+00 0.0000000000e+00
   outer loop
     vertex 2.8192045994e-01 2.0000000000e-01 -2.4664844261e-02
     vertex 1.9327061920e-01 2.0000000000e-01 -4.0805488792e-02
     vertex 1.9534541109e-01 2.0000000000e-01 -1.7090508943e-02
   endloop
 endfacet
 facet normal  -0.0000000000e+00 1.0000000000e+00 0.0000000000e+00
   outer loop
     vertex 1.9327061920e-01 2.0000000000e-01 -4.0805488792e-02
     vertex 1.2423335775e-01 2.0000000000e-01 -3.2094548313e-02
     vertex 1.9534541109e-01 2.0000000000e-01 -1.7090508943e-02
   endloop
 endfacet
 facet normal  0.0000000000e+00 1.0000000000e+00 0.0000000000e+00
   outer loop
     vertex 1.9534541109e-01 2.0000000000e-01 -1.7090508943e-02
     vertex 1.2423335775e-01 2.0000000000e-01 -3.2094548313e-02
     vertex 1.2607624574e-01 2.0000000000e-01 -1.1030242242e-02
   endloop
 endfacet
 facet normal  -0.0000000000e+00 1.0000000000e+00 0.0000000000e+00
   outer loop
     vertex 1.2423335775e-01 2.0000000000e-01 -3.2094548313e-02
     vertex 7.2185601211e-02 2.0000000000e-01 -2.3793262090e-02
     vertex 1.2607624574e-01 2.0000000000e-01 -1.1030242242e-02
   endloop
 endfacet
 facet normal  0.0000000000e+00 1.0000000000e+00 0.0000000000e+00
   outer loop
     vertex 1.2607624574e-01 2.0000000000e-01 -1.1030242242e-02
     vertex 7.2185601211e-02 2.0000000000e-01 -2.3793262090e-02
     vertex 7.3703098771e-02 2.0000000000e-01 -6.4481856092e-03
   endloop
 endfacet
 facet normal  -1.4639005234e-15 1.0000000000e+00 1.2807470033e-16
   outer loop
     vertex 7.2185601211e-02 2.0000000000e-01 -2.3793262090e-02
     vertex 3.4947806043e-02 2.0000000000e-01 -1.5995286432e-02
     vertex 7.3703098771e-02 2.0000000000e-01 -6.4481856092e-03
   endloop
 endfacet
 facet normal  -1.4639005234e-15 1.0000000000e+00 1.2807470033e-16
   outer loop
     vertex 7.3703098771e-02 2.0000000000e-01 -6.4481856092e-03
     vertex 3.4947806043e-02 2.0000000000e-01 -1.5995286432e-02
     vertex 3.6071114362e-02 2.0000000000e-01 -3.1558135874e-03
   endloop
 endfacet
 facet normal  2.1873055624e-15 1.0000000000e+00 -1.9136444038e-16
   outer loop
     vertex 3.4947806043e-02 2.0000000000e-01 -1.5995286432e-02
     vertex 1.0238000842e-02 2.0000000000e-01 -8.3488456028e-03
     vertex 3.6071114362e-02 2.0000000000e-01 -3.1558135874e-03
   endloop
 endfacet
 facet normal  2.1873055624e-15 1.0000000000e+00 -1.9136444038e-16
   outer loop
     vertex 3.6071114362e-02 2.0000000000e-01 -3.1558135874e-03
     vertex 1.0238000842e-02 2.0000000000e-01 -8.3488456028e-03
     vertex 1.0885112636e-02 2.0000000000e-01 -9.5232395682e-04
   endloop
 endfacet
 facet normal  0.0000000000e+00 1.0000000000e+00 0.0000000000e+00
   outer loop
     vertex 1.0238000842e-02 2.0000000000e-01 -8.3488456028e-03
     vertex 0.0000000000e+00 2.0000000000e-01 0.0000000000e+00
     vertex 1.0885112636e-02 2.0000000000e-01 -9.5232395682e-04
   endloop
 endfacet
 facet normal  0.0000000000e+00 1.0000000000e+00 0.0000000000e+00
   outer loop
     vertex 0.0000000000e+00 2.0000000000e-01 0.0000000000e+00
     vertex 1.1532224429e-02 2.0000000000e-01 6.4441976892e-03
     vertex 1.0885112636e-02 2.0000000000e-01 -9.5232395682e-04
   endloop
 endfacet
 facet normal  0.0000000000e+00 1.0000000000e+00 0.0000000000e+00
   outer loop
     vertex 1.1532224429e-02 2.0000000000e-01 6.4441976892e-03
     vertex 3.6071114362e-02 2.0000000000e-01 -3.1558135874e-03
     vertex 1.0885112636e-02 2.0000000000e-01 -9.5232395682e-04
   endloop
 endfacet
 facet normal  0.0000000000e+00 1.0000000000e+00 0.0000000000e+00
   outer loop
     vertex 1.1532224429e-02 2.0000000000e-01 6.4441976892e-03
     vertex 3.7194422682e-02 2.0000000000e-01 9.6836592575e-03
     vertex 3.6071114362e-02 2.0000000000e-01 -3.1558135874e-03
   endloop
 endfacet
 facet normal  0.0000000000e+00 1.0000000000e+00 0.0000000000e+00
   outer loop
     vertex 3.7194422682e-02 2.0000000000e-01 9.6836592575e-03
     vertex 7.3703098771e-02 2.0000000000e-01 -6.4481856092e-03
     vertex 3.6071114362e-02 2.0000000000e-01 -3.1558135874e-03
   endloop
 endfacet
 facet normal  0.0000000000e+00 1.0000000000e+00 0.0000000000e+00
   outer loop
     vertex 3.7194422682e-02 2.0000000000e-01 9.6836592575e-03
     vertex 7.5220596331e-02 2.0000000000e-01 1.0896890872e-02
     vertex 7.3703098771e-02 2.0000000000e-01 -6.4481856092e-03
   endloop
 endfacet
 facet normal  0.0000000000e+00 1.0000000000e+00 0.0000000000e+00
   outer loop
     vertex 7.5220596331e-02 2.0000000000e-01 1.0896890872e-02
     vertex 1.2607624574e-01 2.0000000000e-01 -1.1030242242e-02
     vertex 7.3703098771e-02 2.0000000000e-01 -6.4481856092e-03
   endloop
 endfacet
 facet normal  0.0000000000e+00 1.0000000000e+00 0.0000000000e+00
   outer loop
     vertex 7.5220596331e-02 2.0000000000e-01 1.0896890872e-02
     vertex 1.2791913372e-01 2.0000000000e-01 1.0034063829e-02
     vertex 1.2607624574e-01 2.0000000000e-01 -1.1030242242e-02
   endloop
 endfacet
 facet normal  0.0000000000e+00 1.0000000000e+00 0.0000000000e+00
   outer loop
     vertex 1.2791913372e-01 2.0000000000e-01 1.0034063829e-02
     vertex 1.9534541109e-01 2.0000000000e-01 -1.7090508943e-02
     vertex 1.2607624574e-01 2.0000000000e-01 -1.1030242242e-02
   endloop
 endfacet
 facet normal  0.0000000000e+00 1.0000000000e+00 0.0000000000e+00
   outer loop
     vertex 1.2791913372e-01 2.0000000000e-01 1.0034063829e-02
     vertex 1.9742020299e-01 2.0000000000e-01 6.6244709072e-03
     vertex 1.9534541109e-01 2.0000000000e-01 -1.7090508943e-02
   endloop
 endfacet
 facet normal  0.0000000000e+00 1.0000000000e+00 0.0000000000e+00
   outer loop
     vertex 1.9742020299e-01 2.0000000000e-01 6.6244709072e-03
     vertex 2.8192045994e-01 2.0000000000e-01 -2.4664844261e-02
     vertex 1.9534541109e-01 2.0000000000e-01 -1.7090508943e-02
   endloop
 endfacet
 facet normal  0.0000000000e+00 1.0000000000e+00 0.0000000000e+00
   outer loop
     vertex 1.9742020299e-01 2.0000000000e-01 6.6244709072e-03
     vertex 2.8409756904e-01 2.0000000000e-01 2.1962657803e-04
     vertex 2.8192045994e-01 2.0000000000e-01 -2.4664844261e-02
   endloop
 endfacet
 facet normal  0.0000000000e+00 1.0000000000e+00 0.0000000000e+00
   outer loop
     vertex 2.8409756904e-01 2.0000000000e-01 2.1962657803e-04
     vertex 3.8313942109e-01 2.0000000000e-01 -3.3520355895e-02
     vertex 2.8192045994e-01 2.0000000000e-01 -2.4664844261e-02
   endloop
 endfacet
 facet normal  0.0000000000e+00 1.0000000000e+00 0.0000000000e+00
   outer loop
     vertex 2.8409756904e-01 2.0000000000e-01 2.1962657803e-04
     vertex 3.8526559782e-01 2.0000000000e-01 -9.2180447217e-03
     vertex 3.8313942109e-01 2.0000000000e-01 -3.3520355895e-02
   endloop
 endfacet
 facet normal  0.0000000000e+00 1.0000000000e+00 0.0000000000e+00
   outer loop
     vertex 3.8526559782e-01 2.0000000000e-01 -9.2180447217e-03
     vertex 4.9281742666e-01 2.0000000000e-01 -4.3115938021e-02
     vertex 3.8313942109e-01 2.0000000000e-01 -3.3520355895e-02
   endloop
 endfacet
 facet normal  0.0000000000e+00 1.0000000000e+00 0.0000000000e+00
   outer loop
     vertex 3.8526559782e-01 2.0000000000e-01 -9.2180447217e-03
     vertex 4.9474745898e-01 2.0000000000e-01 -2.1055567716e-02
     vertex 4.9281742666e-01 2.0000000000e-01 -4.3115938021e-02
   endloop
 endfacet
 facet normal  0.0000000000e+00 1.0000000000e+00 0.0000000000e+00
   outer loop
     vertex 4.9474745898e-01 2.0000000000e-01 -2.1055567716e-02
     vertex 6.0400604252e-01 2.0000000000e-01 -3.4059558238e-02
     vertex 4.9281742666e-01 2.0000000000e-01 -4.3115938021e-02
   endloop
 endfacet
 facet normal  0.0000000000e+00 1.0000000000e+00 0.0000000000e+00
   outer loop
     vertex 4.9281742666e-01 2.0000000000e-01 -4.3115938021e-02
     vertex 6.0400604252e-01 2.0000000000e-01 -3.4059558238e-02
     vertex 6.0237512814e-01 2.0000000000e-01 -5.2700994902e-02
   endloop
 endfacet
 facet normal  0.0000000000e+00 1.0000000000e+00 0.0000000000e+00
   outer loop
     vertex 6.0400604252e-01 2.0000000000e-01 -3.4059558238e-02
     vertex 7.0458628250e-01 2.0000000000e-01 -4.6818830039e-02
     vertex 6.0237512814e-01 2.0000000000e-01 -5.2700994902e-02
   endloop
 endfacet
 facet normal  0.0000000000e+00 1.0000000000e+00 0.0000000000e+00
   outer loop
     vertex 6.0237512814e-01 2.0000000000e-01 -5.2700994902e-02
     vertex 7.0458628250e-01 2.0000000000e-01 -4.6818830039e-02
     vertex 7.0329916034e-01 2.0000000000e-01 -6.1530703597e-02
   endloop
 endfacet
 facet normal  0.0000000000e+00 1.0000000000e+00 0.0000000000e+00
   outer loop
     vertex 7.0458628250e-01 2.0000000000e-01 -4.6818830039e-02
     vertex 7.9052048287e-01 2.0000000000e-01 -5.8211965360e-02
     vertex 7.0329916034e-01 2.0000000000e-01 -6.1530703597e-02
   endloop
 endfacet
 facet normal  0.0000000000e+00 1.0000000000e+00 0.0000000000e+00
   outer loop
     vertex 7.0329916034e-01 2.0000000000e-01 -6.1530703597e-02
     vertex 7.9052048287e-01 2.0000000000e-01 -5.8211965360e-02
     vertex 7.8956979251e-01 2.0000000000e-01 -6.9078405907e-02
   endloop
 endfacet
 facet normal  0.0000000000e+00 1.0000000000e+00 0.0000000000e+00
   outer loop
     vertex 7.9052048287e-01 2.0000000000e-01 -5.8211965360e-02
     vertex 8.5937646145e-01 2.0000000000e-01 -6.7638433556e-02
     vertex 7.8956979251e-01 2.0000000000e-01 -6.9078405907e-02
   endloop
 endfacet
 facet normal  0.0000000000e+00 1.0000000000e+00 0.0000000000e+00
   outer loop
     vertex 7.8956979251e-01 2.0000000000e-01 -6.9078405907e-02
     vertex 8.5937646145e-01 2.0000000000e-01 -6.7638433556e-02
     vertex 8.5872117708e-01 2.0000000000e-01 -7.5128368124e-02
   endloop
 endfacet
 facet normal  0.0000000000e+00 1.0000000000e+00 0.0000000000e+00
   outer loop
     vertex 8.5937646145e-01 2.0000000000e-01 -6.7638433556e-02
     vertex 9.1176254451e-01 2.0000000000e-01 -7.4984286192e-02
     vertex 8.5872117708e-01 2.0000000000e-01 -7.5128368124e-02
   endloop
 endfacet
 facet normal  0.0000000000e+00 1.0000000000e+00 0.0000000000e+00
   outer loop
     vertex 8.5872117708e-01 2.0000000000e-01 -7.5128368124e-02
     vertex 9.1176254451e-01 2.0000000000e-01 -7.4984286192e-02
     vertex 9.1134712595e-01 2.0000000000e-01 -7.9732542058e-02
   endloop
 endfacet
 facet normal  0.0000000000e+00 1.0000000000e+00 0.0000000000e+00
   outer loop
     vertex 9.1176254451e-01 2.0000000000e-01 -7.4984286192e-02
     vertex 9.5006766674e-01 2.0000000000e-01 -8.0453812366e-02
     vertex 9.1134712595e-01 2.0000000000e-01 -7.9732542058e-02
   endloop
 endfacet
 facet normal  0.0000000000e+00 1.0000000000e+00 0.0000000000e+00
   outer loop
     vertex 9.1134712595e-01 2.0000000000e-01 -7.9732542058e-02
     vertex 9.5006766674e-01 2.0000000000e-01 -8.0453812366e-02
     vertex 9.4983616437e-01 2.0000000000e-01 -8.3099896589e-02
   endloop
 endfacet
 facet normal  0.0000000000e+00 1.0000000000e+00 0.0000000000e+00
   outer loop
     vertex 9.5006766674e-01 2.0000000000e-01 -8.0453812366e-02
     vertex 9.7727176066e-01 2.0000000000e-01 -8.4390755591e-02
     vertex 9.4983616437e-01 2.0000000000e-01 -8.3099896589e-02
   endloop
 endfacet
 facet normal  0.0000000000e+00 1.0000000000e+00 0.0000000000e+00
   outer loop
     vertex 9.4983616437e-01 2.0000000000e-01 -8.3099896589e-02
     vertex 9.7727176066e-01 2.0000000000e-01 -8.4390755591e-02
     vertex 9.7717543414e-01 2.0000000000e-01 -8.5491772763e-02
   endloop
 endfacet
 facet normal  0.0000000000e+00 1.0000000000e+00 0.0000000000e+00
   outer loop
     vertex 9.7727176066e-01 2.0000000000e-01 -8.4390755591e-02
     vertex 9.9619469809e-01 2.0000000000e-01 -8.7155742748e-02
     vertex 9.7717543414e-01 2.0000000000e-01 -8.5491772763e-02
   endloop
 endfacet
endsolid
